<?xml version="1.0" encoding="UTF-8"?>
<svg width="426px" height="98px" viewBox="0 0 426 98" version="1.1" xmlns="http://www.w3.org/2000/svg" xmlns:xlink="http://www.w3.org/1999/xlink">
    <!-- Generator: Sketch 51 (57462) - http://www.bohemiancoding.com/sketch -->
    <title>Group 2</title>
    <desc>Created with Sketch.</desc>
    <defs>
        <circle id="path-1" cx="45.8333333" cy="45.8333333" r="45.8333333"></circle>
        <linearGradient x1="4.5308642%" y1="62.0555556%" x2="36.9382716%" y2="33.6574074%" id="linearGradient-3">
            <stop stop-color="#A52714" stop-opacity="0.6" offset="0%"></stop>
            <stop stop-color="#A52714" stop-opacity="0" offset="66%"></stop>
        </linearGradient>
        <circle id="path-4" cx="45.8333333" cy="45.8333333" r="45.8333333"></circle>
        <circle id="path-6" cx="45.8333333" cy="45.8333333" r="45.8333333"></circle>
        <linearGradient x1="83.7703583%" y1="87.7742947%" x2="36.2703583%" y2="66.3510972%" id="linearGradient-8">
            <stop stop-color="#055524" stop-opacity="0.4" offset="0%"></stop>
            <stop stop-color="#055524" stop-opacity="0" offset="33%"></stop>
        </linearGradient>
        <circle id="path-9" cx="45.8333333" cy="45.8333333" r="45.8333333"></circle>
        <circle id="path-11" cx="45.8333333" cy="45.8333333" r="45.8333333"></circle>
        <polygon id="path-13" points="0 83.3333333 43.6458333 83.3333333 63.9583333 63.0208333 63.9583333 47.9166667 27.7083333 47.9166667 0 0.260416667"></polygon>
        <linearGradient x1="32.4565217%" y1="-4.84375%" x2="48.423913%" y2="45.4140625%" id="linearGradient-15">
            <stop stop-color="#EA6100" stop-opacity="0.3" offset="0%"></stop>
            <stop stop-color="#EA6100" stop-opacity="0" offset="66%"></stop>
        </linearGradient>
        <circle id="path-16" cx="45.8333333" cy="45.8333333" r="45.8333333"></circle>
        <circle id="path-18" cx="45.8333333" cy="45.8333333" r="45.8333333"></circle>
        <polygon id="path-20" points="2.08333333 0 20.1041667 31.25 0 66.6666667 47.9166667 66.6666667 47.9166667 0"></polygon>
        <circle id="path-22" cx="45.8333333" cy="45.8333333" r="45.8333333"></circle>
        <radialGradient cx="-4.87244898%" cy="-0.238095238%" fx="-4.87244898%" fy="-0.238095238%" r="400.380952%" gradientTransform="translate(-0.048724,-0.002381),scale(0.267857,1.000000),translate(0.048724,0.002381)" id="radialGradient-24">
            <stop stop-color="#3E2723" stop-opacity="0.2" offset="0%"></stop>
            <stop stop-color="#3E2723" stop-opacity="0" offset="100%"></stop>
        </radialGradient>
        <circle id="path-25" cx="45.8333333" cy="45.8333333" r="45.8333333"></circle>
        <polygon id="path-27" points="0 0 0 20.9895833 20.5208333 56.25 38.5416667 25 84.375 25 84.375 0"></polygon>
        <circle id="path-29" cx="45.8333333" cy="45.8333333" r="45.8333333"></circle>
        <radialGradient cx="-0.20979021%" cy="0.0296296296%" fx="-0.20979021%" fy="0.0296296296%" r="136.433566%" gradientTransform="translate(-0.002098,0.000296),scale(1.000000,0.847407),translate(0.002098,-0.000296)" id="radialGradient-31">
            <stop stop-color="#3E2723" stop-opacity="0.2" offset="0%"></stop>
            <stop stop-color="#3E2723" stop-opacity="0" offset="100%"></stop>
        </radialGradient>
        <circle id="path-32" cx="45.8333333" cy="45.8333333" r="45.8333333"></circle>
        <radialGradient cx="10.4123711%" cy="-12.2094508%" fx="10.4123711%" fy="-12.2094508%" r="226.469072%" gradientTransform="translate(0.104124,-0.122095),scale(1.000000,0.495530),translate(-0.104124,0.122095)" id="radialGradient-34">
            <stop stop-color="#263238" stop-opacity="0.2" offset="0%"></stop>
            <stop stop-color="#263238" stop-opacity="0" offset="100%"></stop>
        </radialGradient>
        <circle id="path-35" cx="45.8333333" cy="45.8333333" r="45.8333333"></circle>
        <circle id="path-37" cx="45.8333333" cy="45.8333333" r="45.8333333"></circle>
        <circle id="path-39" cx="45.8333333" cy="45.8333333" r="45.8333333"></circle>
        <radialGradient cx="14.9375%" cy="13.6420455%" fx="14.9375%" fy="13.6420455%" r="100.426136%" id="radialGradient-41">
            <stop stop-color="#FFFFFF" stop-opacity="0.1" offset="0%"></stop>
            <stop stop-color="#FFFFFF" stop-opacity="0" offset="100%"></stop>
        </radialGradient>
        <radialGradient cx="102.389742%" cy="41.3001844%" fx="102.389742%" fy="41.3001844%" r="183.501742%" gradientTransform="translate(1.023897,0.413002),scale(1.000000,0.360360),rotate(2.276339),translate(-1.023897,-0.413002)" id="radialGradient-42">
            <stop stop-color="#FFEA00" offset="10%"></stop>
            <stop stop-color="#FFDE00" offset="17%"></stop>
            <stop stop-color="#FFBF00" offset="28%"></stop>
            <stop stop-color="#FF8E00" offset="43%"></stop>
            <stop stop-color="#FF272D" offset="77%"></stop>
            <stop stop-color="#E0255A" offset="87%"></stop>
            <stop stop-color="#CC2477" offset="95%"></stop>
            <stop stop-color="#C42482" offset="100%"></stop>
        </radialGradient>
        <radialGradient cx="66.5663096%" cy="7.92933857%" fx="66.5663096%" fy="7.92933857%" r="109.679934%" id="radialGradient-43">
            <stop stop-color="#00CCDA" offset="0%"></stop>
            <stop stop-color="#0083FF" offset="22%"></stop>
            <stop stop-color="#007AF9" offset="26%"></stop>
            <stop stop-color="#0060E8" offset="33%"></stop>
            <stop stop-color="#005FE7" offset="33%"></stop>
            <stop stop-color="#2639AD" offset="44%"></stop>
            <stop stop-color="#401E84" offset="52%"></stop>
            <stop stop-color="#4A1475" offset="57%"></stop>
        </radialGradient>
        <linearGradient x1="57.3398631%" y1="75.2206878%" x2="35.1458813%" y2="6.80417777%" id="linearGradient-44">
            <stop stop-color="#000F43" stop-opacity="0.4" offset="0%"></stop>
            <stop stop-color="#001962" stop-opacity="0.17" offset="48%"></stop>
            <stop stop-color="#002079" stop-opacity="0" offset="100%"></stop>
        </linearGradient>
        <radialGradient cx="134.21712%" cy="-12.0217113%" fx="134.21712%" fy="-12.0217113%" r="174.201983%" gradientTransform="translate(1.342171,-0.120217),scale(0.911111,1.000000),rotate(5.543597),translate(-1.342171,0.120217)" id="radialGradient-45">
            <stop stop-color="#FFEA00" offset="0%"></stop>
            <stop stop-color="#FF272D" offset="50%"></stop>
            <stop stop-color="#C42482" offset="100%"></stop>
        </radialGradient>
        <radialGradient cx="112.208286%" cy="-43.9489472%" fx="112.208286%" fy="-43.9489472%" r="454.282638%" gradientTransform="translate(1.122083,-0.439489),scale(1.000000,0.541667),rotate(5.613916),translate(-1.122083,0.439489)" id="radialGradient-46">
            <stop stop-color="#FFE900" offset="0%"></stop>
            <stop stop-color="#FFAF0E" offset="16%"></stop>
            <stop stop-color="#FF7A1B" offset="32%"></stop>
            <stop stop-color="#FF4E26" offset="47%"></stop>
            <stop stop-color="#FF2C2E" offset="62%"></stop>
            <stop stop-color="#FF1434" offset="76%"></stop>
            <stop stop-color="#FF0538" offset="89%"></stop>
            <stop stop-color="#FF0039" offset="100%"></stop>
        </radialGradient>
        <radialGradient cx="200.890211%" cy="16.0091876%" fx="200.890211%" fy="16.0091876%" r="375.252171%" gradientTransform="translate(2.008902,0.160092),scale(0.537037,1.000000),rotate(5.655281),translate(-2.008902,-0.160092)" id="radialGradient-47">
            <stop stop-color="#FF272D" offset="0%"></stop>
            <stop stop-color="#C42482" offset="50%"></stop>
            <stop stop-color="#620700" offset="99%"></stop>
        </radialGradient>
        <radialGradient cx="76.8450054%" cy="39.1793718%" fx="76.8450054%" fy="39.1793718%" r="84.0428786%" gradientTransform="translate(0.768450,0.391794),scale(1.000000,0.961722),translate(-0.768450,-0.391794)" id="radialGradient-48">
            <stop stop-color="#FFEA00" offset="16%"></stop>
            <stop stop-color="#FFDE00" offset="23%"></stop>
            <stop stop-color="#FFBF00" offset="37%"></stop>
            <stop stop-color="#FF8E00" offset="54%"></stop>
            <stop stop-color="#FF272D" offset="76%"></stop>
            <stop stop-color="#F92433" offset="80%"></stop>
            <stop stop-color="#E91C45" offset="84%"></stop>
            <stop stop-color="#CF0E62" offset="89%"></stop>
            <stop stop-color="#B5007F" offset="94%"></stop>
        </radialGradient>
        <radialGradient cx="28.7395538%" cy="3.35553196%" fx="28.7395538%" fy="3.35553196%" r="241.105864%" gradientTransform="translate(0.287396,0.033555),scale(1.000000,0.398010),translate(-0.287396,-0.033555)" id="radialGradient-49">
            <stop stop-color="#FFEA00" offset="28%"></stop>
            <stop stop-color="#FFDD00" offset="40%"></stop>
            <stop stop-color="#FFBA00" offset="63%"></stop>
            <stop stop-color="#FF9100" offset="86%"></stop>
            <stop stop-color="#FF6711" offset="93%"></stop>
            <stop stop-color="#FF4A1D" offset="99%"></stop>
        </radialGradient>
        <linearGradient x1="-143.122081%" y1="77.6317435%" x2="141.906755%" y2="39.428981%" id="linearGradient-50">
            <stop stop-color="#C42482" stop-opacity="0.5" offset="0%"></stop>
            <stop stop-color="#FF272D" stop-opacity="0.5" offset="47%"></stop>
            <stop stop-color="#FF2C2C" stop-opacity="0.51" offset="49%"></stop>
            <stop stop-color="#FF7A1A" stop-opacity="0.72" offset="68%"></stop>
            <stop stop-color="#FFB20D" stop-opacity="0.87" offset="83%"></stop>
            <stop stop-color="#FFD605" stop-opacity="0.96" offset="94%"></stop>
            <stop stop-color="#FFE302" offset="100%"></stop>
        </linearGradient>
        <linearGradient x1="55.5432879%" y1="98.2681376%" x2="18.7831944%" y2="9.22918671%" id="linearGradient-51">
            <stop stop-color="#891551" stop-opacity="0.6" offset="0%"></stop>
            <stop stop-color="#C42482" stop-opacity="0" offset="100%"></stop>
        </linearGradient>
        <linearGradient x1="8.07048282%" y1="5.40918885%" x2="47.7186259%" y2="46.4157159%" id="linearGradient-52">
            <stop stop-color="#891551" stop-opacity="0.5" offset="1%"></stop>
            <stop stop-color="#FF272D" stop-opacity="0.5" offset="48%"></stop>
            <stop stop-color="#FF272D" stop-opacity="0" offset="100%"></stop>
        </linearGradient>
        <linearGradient x1="47.2174258%" y1="98.3754935%" x2="49.7187345%" y2="27.7861435%" id="linearGradient-53">
            <stop stop-color="#C42482" offset="0%"></stop>
            <stop stop-color="#C42482" stop-opacity="0.81" offset="8%"></stop>
            <stop stop-color="#C42482" stop-opacity="0.57" offset="21%"></stop>
            <stop stop-color="#C42482" stop-opacity="0.36" offset="33%"></stop>
            <stop stop-color="#C42482" stop-opacity="0.2" offset="45%"></stop>
            <stop stop-color="#C42482" stop-opacity="0.09" offset="56%"></stop>
            <stop stop-color="#C42482" stop-opacity="0.02" offset="67%"></stop>
            <stop stop-color="#C42482" stop-opacity="0" offset="77%"></stop>
        </linearGradient>
        <linearGradient x1="6.33538553%" y1="1.64707394%" x2="92.3524888%" y2="89.4597546%" id="linearGradient-54">
            <stop stop-color="#FFF14F" offset="0%"></stop>
            <stop stop-color="#FFEE4C" offset="27%"></stop>
            <stop stop-color="#FFE643" offset="45%"></stop>
            <stop stop-color="#FFD834" offset="61%"></stop>
            <stop stop-color="#FFC41E" offset="76%"></stop>
            <stop stop-color="#FFAB02" offset="89%"></stop>
            <stop stop-color="#FFA900" offset="90%"></stop>
            <stop stop-color="#FFA000" offset="95%"></stop>
            <stop stop-color="#FF9100" offset="100%"></stop>
        </linearGradient>
        <linearGradient x1="71.7876242%" y1="7.15862023%" x2="42.7460118%" y2="81.9480213%" id="linearGradient-55">
            <stop stop-color="#FF8E00" offset="0%"></stop>
            <stop stop-color="#FF8E00" stop-opacity="0.86" offset="4%"></stop>
            <stop stop-color="#FF8E00" stop-opacity="0.73" offset="8%"></stop>
            <stop stop-color="#FF8E00" stop-opacity="0.63" offset="13%"></stop>
            <stop stop-color="#FF8E00" stop-opacity="0.56" offset="18%"></stop>
            <stop stop-color="#FF8E00" stop-opacity="0.51" offset="23%"></stop>
            <stop stop-color="#FF8E00" stop-opacity="0.5" offset="28%"></stop>
            <stop stop-color="#FF8E00" stop-opacity="0.48" offset="39%"></stop>
            <stop stop-color="#FF8E00" stop-opacity="0.42" offset="52%"></stop>
            <stop stop-color="#FF8E00" stop-opacity="0.31" offset="68%"></stop>
            <stop stop-color="#FF8E00" stop-opacity="0.17" offset="84%"></stop>
            <stop stop-color="#FF8E00" stop-opacity="0" offset="100%"></stop>
        </linearGradient>
        <linearGradient x1="50%" y1="1.6318408%" x2="50%" y2="98.5438607%" id="linearGradient-56">
            <stop stop-color="#FF1B2D" offset="0%"></stop>
            <stop stop-color="#FF1B2D" offset="30%"></stop>
            <stop stop-color="#FF1B2D" offset="61%"></stop>
            <stop stop-color="#A70014" offset="100%"></stop>
        </linearGradient>
        <linearGradient x1="49.9985028%" y1="0.848429259%" x2="49.9985028%" y2="99.6130475%" id="linearGradient-57">
            <stop stop-color="#9C0000" offset="0%"></stop>
            <stop stop-color="#FF4B4B" offset="70%"></stop>
            <stop stop-color="#FF4B4B" offset="100%"></stop>
        </linearGradient>
    </defs>
    <g id="Page-1" stroke="none" stroke-width="1" fill="none" fill-rule="evenodd">
        <g id="Group-2" transform="translate(0.000000, -1.000000)">
            <g id="download" transform="translate(112.000000, 0.000000)">
                <g id="Clipped" transform="translate(4.166667, 4.166667)">
                    <mask id="mask-2" fill="white">
                        <use xlink:href="#path-1"></use>
                    </mask>
                    <g id="e"></g>
                    <g id="Group" mask="url(#mask-2)" fill-rule="nonzero">
                        <g transform="translate(7.291667, 0.000000)" id="Shape">
                            <polygon fill="#DB4437" points="0 0 0 56.25 20.5208333 56.25 38.5416667 25 84.375 25 84.375 0"></polygon>
                            <polygon fill="url(#linearGradient-3)" points="0 0 0 56.25 20.5208333 56.25 38.5416667 25 84.375 25 84.375 0"></polygon>
                        </g>
                    </g>
                </g>
                <g id="Clipped" transform="translate(4.166667, 4.166667)">
                    <mask id="mask-5" fill="white">
                        <use xlink:href="#path-4"></use>
                    </mask>
                    <g id="e"></g>
                    <polygon id="Shape" fill-opacity="0.15" fill="#3E2723" fill-rule="nonzero" mask="url(#mask-5)" points="28.28125 56.09375 7.55208333 20.5208333 7.23958333 21.0416667 27.5520833 56.3541667"></polygon>
                </g>
                <g id="Clipped" transform="translate(4.166667, 4.166667)">
                    <mask id="mask-7" fill="white">
                        <use xlink:href="#path-6"></use>
                    </mask>
                    <g id="e"></g>
                    <g id="Group" mask="url(#mask-7)" fill-rule="nonzero">
                        <g transform="translate(0.000000, 8.333333)" id="Shape">
                            <polygon fill="#0F9D58" points="0 83.3333333 43.6458333 83.3333333 63.9583333 63.0208333 63.9583333 47.9166667 27.7083333 47.9166667 0 0.260416667"></polygon>
                            <polygon fill="url(#linearGradient-8)" points="0 83.3333333 43.6458333 83.3333333 63.9583333 63.0208333 63.9583333 47.9166667 27.7083333 47.9166667 0 0.260416667"></polygon>
                        </g>
                    </g>
                </g>
                <g id="Clipped" transform="translate(4.166667, 4.166667)">
                    <mask id="mask-10" fill="white">
                        <use xlink:href="#path-9"></use>
                    </mask>
                    <g id="e"></g>
                    <polygon id="Shape" fill-opacity="0.15" fill="#263238" fill-rule="nonzero" mask="url(#mask-10)" points="63.4375 56.9270833 63.0208333 56.71875 43.0729167 91.6145833 43.59375 91.6145833 63.5416667 56.71875"></polygon>
                </g>
                <g id="Clipped" transform="translate(4.166667, 4.166667)">
                    <mask id="mask-12" fill="white">
                        <use xlink:href="#path-11"></use>
                    </mask>
                    <g id="e"></g>
                    <g mask="url(#mask-12)">
                        <g transform="translate(0.000000, 8.333333)">
                            <mask id="mask-14" fill="white">
                                <use xlink:href="#path-13"></use>
                            </mask>
                            <g id="g" stroke="none" fill="none"></g>
                            <g id="Group" stroke="none" stroke-width="1" fill="none" fill-rule="evenodd" mask="url(#mask-14)">
                                <g transform="translate(43.750000, 16.666667)" fill-rule="nonzero" id="Shape">
                                    <polygon fill="#FFCD40" points="2.08333333 0 20.1041667 31.25 0 66.6666667 47.9166667 66.6666667 47.9166667 0"></polygon>
                                    <polygon fill="url(#linearGradient-15)" points="2.08333333 0 20.1041667 31.25 0 66.6666667 47.9166667 66.6666667 47.9166667 0"></polygon>
                                </g>
                            </g>
                        </g>
                    </g>
                </g>
                <g id="Clipped" transform="translate(4.166667, 4.166667)">
                    <mask id="mask-17" fill="white">
                        <use xlink:href="#path-16"></use>
                    </mask>
                    <g id="e"></g>
                    <g id="Group" mask="url(#mask-17)" fill-rule="nonzero">
                        <g transform="translate(43.750000, 25.000000)" id="Shape">
                            <polygon fill="#FFCD40" points="2.08333333 0 20.1041667 31.25 0 66.6666667 47.9166667 66.6666667 47.9166667 0"></polygon>
                            <polygon fill="url(#linearGradient-15)" points="2.08333333 0 20.1041667 31.25 0 66.6666667 47.9166667 66.6666667 47.9166667 0"></polygon>
                        </g>
                    </g>
                </g>
                <g id="Clipped" transform="translate(4.166667, 4.166667)">
                    <mask id="mask-19" fill="white">
                        <use xlink:href="#path-18"></use>
                    </mask>
                    <g id="e"></g>
                    <g mask="url(#mask-19)">
                        <g transform="translate(43.750000, 25.000000)">
                            <mask id="mask-21" fill="white">
                                <use xlink:href="#path-20"></use>
                            </mask>
                            <g id="j" stroke="none" fill="none"></g>
                            <g id="Group" stroke="none" stroke-width="1" fill="none" fill-rule="evenodd" mask="url(#mask-21)">
                                <g transform="translate(-36.458333, -25.000000)" fill-rule="nonzero" id="Shape">
                                    <polygon fill="#DB4437" points="0 0 0 56.25 20.5208333 56.25 38.5416667 25 84.375 25 84.375 0"></polygon>
                                    <polygon fill="url(#linearGradient-3)" points="0 0 0 56.25 20.5208333 56.25 38.5416667 25 84.375 25 84.375 0"></polygon>
                                </g>
                            </g>
                        </g>
                    </g>
                </g>
                <g id="Clipped" transform="translate(4.166667, 4.166667)">
                    <mask id="mask-23" fill="white">
                        <use xlink:href="#path-22"></use>
                    </mask>
                    <g id="e"></g>
                    <polygon id="Shape" fill="url(#radialGradient-24)" fill-rule="nonzero" mask="url(#mask-23)" points="45.8333333 25 45.8333333 35.9375 86.6666667 25"></polygon>
                </g>
                <g id="Clipped" transform="translate(4.166667, 4.166667)">
                    <mask id="mask-26" fill="white">
                        <use xlink:href="#path-25"></use>
                    </mask>
                    <g id="e"></g>
                    <g mask="url(#mask-26)">
                        <g transform="translate(7.291667, 0.000000)">
                            <mask id="mask-28" fill="white">
                                <use xlink:href="#path-27"></use>
                            </mask>
                            <g id="m" stroke="none" fill="none"></g>
                            <g id="Group" stroke="none" stroke-width="1" fill="none" fill-rule="evenodd" mask="url(#mask-28)">
                                <g transform="translate(-7.291667, 8.333333)" fill-rule="nonzero" id="Shape">
                                    <polygon fill="#0F9D58" points="0 83.3333333 43.6458333 83.3333333 63.9583333 63.0208333 63.9583333 47.9166667 27.7083333 47.9166667 0 0.260416667"></polygon>
                                    <polygon fill="url(#linearGradient-8)" points="0 83.3333333 43.6458333 83.3333333 63.9583333 63.0208333 63.9583333 47.9166667 27.7083333 47.9166667 0 0.260416667"></polygon>
                                </g>
                            </g>
                        </g>
                    </g>
                </g>
                <g id="Clipped" transform="translate(4.166667, 4.166667)">
                    <mask id="mask-30" fill="white">
                        <use xlink:href="#path-29"></use>
                    </mask>
                    <g id="e"></g>
                    <polygon id="Shape" fill="url(#radialGradient-31)" fill-rule="nonzero" mask="url(#mask-30)" points="7.29166667 21.09375 37.0833333 50.8854167 27.8125 56.25"></polygon>
                </g>
                <g id="Clipped" transform="translate(4.166667, 4.166667)">
                    <mask id="mask-33" fill="white">
                        <use xlink:href="#path-32"></use>
                    </mask>
                    <g id="e"></g>
                    <polygon id="Shape" fill="url(#radialGradient-34)" fill-rule="nonzero" mask="url(#mask-33)" points="43.6458333 91.6666667 54.5833333 50.8854167 63.8541667 56.25"></polygon>
                </g>
                <g id="Clipped" transform="translate(4.166667, 4.166667)">
                    <mask id="mask-36" fill="white">
                        <use xlink:href="#path-35"></use>
                    </mask>
                    <g id="e"></g>
                    <g id="Group" mask="url(#mask-36)" fill-rule="nonzero">
                        <g transform="translate(25.000000, 25.000000)" id="Oval">
                            <circle fill="#F1F1F1" cx="20.8333333" cy="20.8333333" r="20.8333333"></circle>
                            <circle fill="#4285F4" cx="20.8333333" cy="20.8333333" r="16.6666667"></circle>
                        </g>
                    </g>
                </g>
                <g id="Clipped" transform="translate(4.166667, 4.166667)">
                    <mask id="mask-38" fill="white">
                        <use xlink:href="#path-37"></use>
                    </mask>
                    <g id="e"></g>
                    <g id="Group" mask="url(#mask-38)" fill-rule="nonzero">
                        <g transform="translate(0.000000, 8.333333)" id="Shape">
                            <path d="M45.8333333,16.1458333 C34.375,16.1458333 25,25.5208333 25,36.9791667 L25,37.5 C25,26.0416667 34.375,16.6666667 45.8333333,16.6666667 L91.6666667,16.6666667 L91.6666667,16.1458333 L45.8333333,16.1458333 Z" fill-opacity="0.2" fill="#3E2723"></path>
                            <path d="M63.8541667,47.9166667 C60.2083333,54.1666667 53.5416667,58.3333333 45.8333333,58.3333333 C38.125,58.3333333 31.40625,54.1666667 27.8125,47.9166667 L0,0.260416667 L0,0.78125 L27.8125,48.4375 C31.4583333,54.6875 38.125,58.8541667 45.8333333,58.8541667 C53.5416667,58.8541667 60.2604167,54.6875 63.8541667,48.4375 L63.8541667,47.9166667 Z" fill-opacity="0.1" fill="#FFFFFF"></path>
                            <path d="M46.3541667,16.6666667 L46.09375,16.6666667 C57.5520833,16.8229167 66.6666667,26.0416667 66.6666667,37.5 C66.6666667,48.9583333 57.5,58.1770833 46.09375,58.3333333 L46.3541667,58.3333333 C57.8125,58.3333333 67.1875,48.9583333 67.1875,37.5 C67.1875,26.0416667 57.8125,16.6666667 46.3541667,16.6666667 Z" fill="#3E2723" opacity="0.1"></path>
                            <path d="M64.0625,48.59375 C65.8333333,45.5729167 66.875,42.03125 66.875,38.1770833 C66.875,36.09375 66.5104167,33.90625 65.8333333,31.9270833 C66.3541667,33.6979167 66.6666667,35.5729167 66.6666667,37.5 C66.6666667,41.3020833 65.625,44.7916667 63.8541667,47.9166667 L43.75,83.3333333 L44.2708333,83.3333333 L64.1666667,48.6979167 L64.0625,48.59375 Z" fill-opacity="0.2" fill="#FFFFFF"></path>
                        </g>
                    </g>
                </g>
                <g id="Clipped" transform="translate(4.166667, 4.166667)">
                    <mask id="mask-40" fill="white">
                        <use xlink:href="#path-39"></use>
                    </mask>
                    <g id="e"></g>
                    <g id="Group" mask="url(#mask-40)" fill-rule="nonzero">
                        <path d="M45.8333333,0.520833333 C71.0416667,0.520833333 91.5104167,20.8333333 91.6666667,46.09375 L91.6666667,45.8333333 C91.6666667,20.5208333 71.1458333,0 45.8333333,0 C20.5208333,0 0,20.5208333 0,45.8333333 L0,46.09375 C0.15625,20.8333333 20.625,0.520833333 45.8333333,0.520833333 Z" id="Shape" fill-opacity="0.2" fill="#FFFFFF"></path>
                        <path d="M45.8333333,91.1458333 C71.0416667,91.1458333 91.5104167,70.8333333 91.6666667,45.5729167 L91.6666667,45.8333333 C91.6666667,71.1458333 71.1458333,91.6666667 45.8333333,91.6666667 C20.5208333,91.6666667 0,71.1458333 0,45.8333333 L0,45.5729167 C0.15625,70.8333333 20.625,91.1458333 45.8333333,91.1458333 Z" id="Shape" fill-opacity="0.15" fill="#3E2723"></path>
                    </g>
                </g>
                <circle id="Oval" fill="url(#radialGradient-41)" fill-rule="nonzero" cx="50" cy="50" r="45.8333333"></circle>
                <polygon id="Shape" points="0 0 100 0 100 100 0 100"></polygon>
            </g>
            <g id="download" transform="translate(0.000000, 1.000000)" fill-rule="nonzero">
                <path d="M76.6563195,9.22330097 C74.2923347,11.994497 73.1917739,18.2326701 75.5883314,24.5563248 C77.9848888,30.8799795 81.658689,29.5063091 83.948645,35.9542104 C86.9709921,44.4626172 85.5644459,55.89231 85.5644459,55.89231 C85.5644459,55.89231 89.197777,66.4890536 91.7305473,55.233306 C97.3360043,34.0905115 76.6563195,14.4297303 76.6563195,9.22330097 Z" id="Shape" fill="url(#radialGradient-42)"></path>
                <path d="M47.4760924,96.8446602 C71.9480237,96.8446602 91.7718447,77.0176238 91.7718447,52.5728155 C91.7718447,28.1280073 71.9480237,8.30097087 47.5000415,8.30097087 C23.0520593,8.30097087 3.22823829,28.1220515 3.22823829,52.5698376 C3.18133808,77.0414472 23.0281102,96.8446602 47.4760924,96.8446602 Z" id="Shape" fill="url(#radialGradient-43)"></path>
                <path d="M80.645357,79.8776034 C79.6912158,80.5494106 78.6902729,81.1524227 77.65015,81.682048 C79.0282537,79.6655353 80.2995454,77.5783319 81.4587963,75.4290223 C82.399522,74.389829 83.2616882,73.3794195 83.963752,72.2876214 C84.305834,71.7506552 84.6906764,71.0886285 85.0993849,70.3203996 C87.577491,65.8638782 90.3101699,58.6520553 90.387735,51.2437088 L90.387735,51.2288206 C90.387735,51.0461926 90.387735,50.8645571 90.387735,50.681929 C90.4006402,48.8223299 90.2102416,46.9668755 89.8199186,45.1484976 C89.839807,45.2904313 89.8577067,45.4323651 89.8756063,45.5742989 C89.853729,45.465119 89.8348349,45.3549467 89.8119632,45.2457669 C89.8487569,45.4442756 89.8775952,45.6427844 89.9114056,45.8412931 C90.4175678,50.1310672 90.057586,54.3146391 88.2527054,57.3994651 C88.223867,57.4441296 88.1950287,57.486809 88.1661904,57.5304809 C89.101944,52.8426967 89.4151877,47.6655885 88.3740252,42.4835176 C88.3740252,42.4835176 87.9573612,39.9644416 84.8557508,32.3158994 C83.0657865,27.9139679 79.900533,24.3040863 77.0992388,21.6748379 C74.6440044,18.6426167 72.4145044,16.6128648 71.1853956,15.3166026 C68.6177912,12.6178762 67.5418238,10.595072 67.0993048,9.27498882 C66.7164513,9.08342788 61.8149324,4.3311284 61.4261124,4.15048544 C59.287105,7.46061884 52.5598224,17.8148352 55.757892,27.4901517 C57.2077631,31.8742175 60.8761955,36.4230455 64.7146746,38.9778531 C64.8827323,39.1704066 67.0018512,41.4592125 68.0052256,46.6363207 C69.0443994,51.9811688 68.502438,56.1508451 66.3604473,62.3185119 C63.8455475,67.7288679 57.4036648,73.0766936 51.3724794,73.6235852 C38.4777754,74.7928018 33.7562473,67.1611329 33.7562473,67.1611329 C38.364411,68.9993239 43.4588483,68.6152095 46.556481,66.7085329 C49.6789743,64.7800204 51.5673867,63.3507574 53.1007894,63.9145223 C54.610326,64.4723319 55.8175575,62.8415825 54.7336347,61.1542581 C53.0289986,58.5339249 49.9210112,57.1832964 46.8379032,57.7230344 C43.7124266,58.2302242 40.8484837,60.7006656 36.7534431,58.3076426 C36.4883347,58.1541786 36.2317304,57.986525 35.9847529,57.8054155 C35.7152638,57.6277502 36.8628298,58.0753874 36.5943351,57.873901 C35.7987954,57.4421445 34.3867125,56.5002205 34.0207642,56.1647407 C33.9601043,56.1091582 34.6392963,56.3811152 34.5786364,56.3255328 C30.7491072,53.1781765 31.2274255,51.0521478 31.3477508,49.718169 C31.4471933,48.6511845 32.1432905,47.2844517 33.3117395,46.7296198 C33.8775671,47.0383009 34.2305878,47.2735338 34.2305878,47.2735338 C34.2305878,47.2735338 33.9889426,46.7772619 33.858673,46.5211856 C33.9044165,46.5013347 33.9481712,46.5062974 33.9939148,46.4874391 C34.4573166,46.7107615 35.4855517,47.2913995 36.0235354,47.6457377 C36.7265936,48.1420095 36.9513336,48.582699 36.9513336,48.582699 C36.9513336,48.582699 37.1362966,48.4834446 36.999066,48.049703 C36.9493447,47.8730302 36.7355434,47.3102579 36.0394462,46.7425229 L36.0832009,46.7425229 C36.5002305,46.979588 36.8952549,47.2532901 37.2635829,47.5603789 C37.4624678,46.8477325 37.8134997,46.1033247 37.7359346,44.7723235 C37.6882022,43.8363548 37.7100796,43.5941741 37.5450051,43.2328882 C37.3968358,42.922222 37.6275423,42.8011316 37.8850983,43.1237083 C37.8410493,42.8711035 37.767283,42.6245707 37.6653305,42.389226 L37.6653305,42.3654049 C37.9865296,41.2497857 44.4522785,38.3495729 44.9246302,38.0101229 C45.6978611,37.4639564 46.346239,36.7603102 46.8269645,35.9456319 C47.1869462,35.3739267 47.4574297,34.5709588 47.5230617,33.3541002 C47.558861,32.4766915 47.1491581,31.8920833 40.6108162,31.2082206 C38.8208519,31.0325404 37.7737227,29.7392559 37.177068,28.5462183 C37.0686757,28.2891494 36.9573001,28.0559017 36.8459246,27.8236464 C36.7399362,27.551587 36.6548332,27.2718755 36.5913519,26.986932 C37.6603583,23.9229495 39.4562892,21.3294327 42.097481,19.3741215 C42.2416726,19.2431057 41.5227036,19.407868 41.6659007,19.2748671 C41.8339585,19.1220154 42.9298144,18.6793409 43.1366547,18.5800865 C43.3892386,18.4609812 42.0547207,17.8952313 40.8763276,18.0331949 C39.676057,18.1681808 39.4214843,18.3111071 38.7810749,18.5820716 C39.0465863,18.3180549 39.8918472,17.9716572 39.6939567,17.9736422 C38.4012047,18.172151 36.7922256,18.9225141 35.4179308,19.7721315 C35.4150649,19.62405 35.4431759,19.4769998 35.5004681,19.340375 C34.8600586,19.6113394 33.2868789,20.7090928 32.8284491,21.6371212 C32.8483165,21.459175 32.857283,21.2801843 32.8552986,21.1011476 C32.3675263,21.5074079 31.9274981,21.9675813 31.5436525,22.4728431 L31.5197863,22.494679 C27.8046159,21.0058634 24.5359422,20.906609 21.7694529,21.5735984 C21.1638483,20.9671542 20.8685042,21.4108213 19.4912261,18.3905106 C19.3977502,18.2088751 19.5628247,18.570161 19.4912261,18.3905106 C19.2644973,17.8049098 19.6294511,19.1716426 19.4912261,18.3905106 C17.1762056,20.2138135 14.1292885,22.2802896 12.6664899,23.7393289 C12.6485903,23.797889 14.3729226,23.2529825 12.6664899,23.7393289 C12.0698351,23.9100464 12.1096121,24.263392 12.0191195,27.461368 C11.9972421,27.7035486 12.0191195,27.9755056 11.9972421,28.1938652 C10.8287932,29.6826809 10.0332535,30.9372562 9.73194286,31.5893574 C8.22141186,34.187837 6.55674504,38.2394005 4.94378831,44.6462705 C5.65583833,42.9121531 6.51377902,41.2413535 7.50840941,39.6517903 C6.16693059,43.0532377 4.87020089,48.3941157 4.61165049,56.6183332 C4.93601537,54.9210957 5.35195883,53.2425769 5.85766454,51.5901065 C5.54044586,58.4140302 6.71907943,65.2248453 9.31130124,71.5471837 C10.2390994,73.8121686 11.7734966,77.2503401 14.3828668,81.0160511 C22.5938309,89.6402637 34.1699279,95 46.9880613,95 C60.3710278,95 72.3886494,89.1568949 80.645357,79.8776034 Z" id="Shape" fill="url(#linearGradient-44)"></path>
                <path d="M71.0149956,86.2094245 C87.413579,84.3356699 94.6759957,67.6606449 85.3505411,67.3327875 C76.9302457,67.0635471 63.2521739,87.093646 71.0149956,86.2094245 Z" id="Shape" fill="url(#radialGradient-45)"></path>
                <path d="M85.9414975,63.8817148 C97.1126177,57.3847002 94.1954648,43.3495146 94.1954648,43.3495146 C94.1954648,43.3495146 89.883542,48.3550354 86.9554224,56.3335807 C84.0661849,64.2383981 79.2248677,67.8062265 85.9414975,63.8817148 Z" id="Shape" fill="url(#radialGradient-46)"></path>
                <path d="M50.9267121,94.7435007 C66.564755,99.7670055 80.0076864,87.3649447 71.7207148,83.2231986 C64.192473,79.488573 43.5045724,92.368295 50.9267121,94.7435007 Z" id="Shape" fill="url(#radialGradient-47)"></path>
                <path d="M87.3317094,69.7690585 C87.7101783,69.2364653 88.2221074,67.5303785 88.6742782,66.7672599 C91.421166,62.3435567 91.4410854,58.8181076 91.4410854,58.7346415 C93.1003729,50.4655359 92.9499813,47.0891334 91.9291111,40.8490489 C91.1074351,35.8212101 87.514968,28.6182845 84.4025589,25.1494732 C81.1955326,21.5723546 83.4553906,22.7398864 80.3499533,20.1295835 C77.6279648,17.1198357 74.9896379,14.1389036 73.5524518,12.9395753 C63.1664672,4.27400564 63.4005203,2.43477053 63.6007105,2.12077902 C63.5668475,2.15754385 63.5170489,2.21219427 63.4543028,2.28373664 C63.3308024,1.79486378 63.2441529,1.38349515 63.2441529,1.38349515 C63.2441529,1.38349515 57.5671187,7.04726614 56.3719536,16.4868845 C55.5921084,22.6474775 57.9037569,29.0743671 61.2522111,33.1801042 C62.9956762,35.3080612 64.9660103,37.2404746 67.1284394,38.9432396 C69.6582056,42.5680531 71.0505729,47.0404449 71.0505729,51.8516693 C71.0505729,63.8986096 61.256195,73.6651368 49.1740718,73.6651368 C47.5275489,73.66593 45.8861613,73.4819428 44.2808667,73.1166453 C38.5799292,72.031586 35.2872494,69.161942 33.6458893,67.2134061 C32.7046968,66.0975438 32.3053125,65.2837494 32.3053125,65.2837494 C37.4126513,67.1090735 43.0617983,66.7275141 46.4949101,64.8346223 C49.955909,62.9208638 52.0494398,61.5009465 53.7495622,62.0603681 C55.4247853,62.6178024 56.7583903,61.0001499 55.5622293,59.3238724 C54.3899715,57.6495822 51.3393126,55.2499319 46.8096369,55.916667 C43.3446541,56.4204446 40.1704948,58.8737517 35.6308594,56.4969552 C35.3386543,56.3460289 35.0544268,56.1802023 34.7793042,56.0001331 C34.480513,55.8242582 35.7523678,56.2674234 35.4555685,56.0677009 C34.5721423,55.6384467 33.008468,54.7034277 32.6031078,54.3715506 C32.5353818,54.3159065 33.2883358,54.5861777 33.2206098,54.5305336 C28.9757817,51.4055231 29.5056383,49.2950232 29.6351145,47.972483 C29.7416834,46.9132584 30.5125649,45.5559407 31.8123069,45.0054619 C32.4397686,45.3115043 32.8311851,45.5450106 32.8311851,45.5450106 C32.8311851,45.5450106 32.563269,45.0561377 32.4188532,44.7987839 C32.4696477,44.7799047 32.5184503,44.7838793 32.5682488,44.765 C33.0821698,44.9865827 34.2195686,45.5599153 34.8181471,45.9146462 C35.5979923,46.4065 35.8459891,46.844697 35.8459891,46.844697 C35.8459891,46.844697 36.0511591,46.7453326 35.8997715,46.3150847 C35.8439971,46.1392097 35.607952,45.5807818 34.8360746,45.016392 L34.8838812,45.016392 C35.3421188,45.2494226 35.7796066,45.5210086 36.191591,45.8281992 C36.4097086,45.1207246 36.8011252,44.3814534 36.7144757,43.0599069 C36.6616893,42.1308497 36.6865885,41.8893942 36.5033299,41.5306887 C36.3389947,41.2226591 36.5949592,41.1024281 36.8798069,41.4223815 C36.8306865,41.1698264 36.7490021,40.9246777 36.63679,40.6930468 L36.63679,40.6691993 C36.9923516,39.5622799 44.1593583,36.6826995 44.681247,36.3458541 C45.5217276,35.8193377 46.240432,35.1206022 46.7897175,34.2959665 C47.1881058,33.7276021 47.4868971,32.9316932 47.5615949,31.7234221 C47.5864942,31.1789052 47.4181751,30.7476637 45.5198545,30.3323204 C44.3804638,30.0849031 42.6175953,29.8444412 39.8995907,29.5900684 C37.9176086,29.415187 36.7543146,28.1313989 36.0939858,26.9469752 C35.9734734,26.6916087 35.849973,26.4600896 35.7274685,26.2295642 C35.6105765,25.9609504 35.5162977,25.6830957 35.4456088,25.3988778 C36.6316971,22.3013847 38.767624,19.6564917 41.5489185,17.8412213 C41.7082739,17.7110539 40.9114971,17.8740115 41.0708525,17.7418569 C41.257099,17.590823 42.4711876,17.152626 42.7012569,17.0542552 C42.9811247,16.9360116 41.5060918,16.3746027 40.1953941,16.5107319 C38.8647769,16.6448739 38.5829171,16.786965 37.8727899,17.0562425 C38.1715812,16.7939205 39.1048059,16.4501196 38.8846963,16.4521069 C37.4504982,16.6508357 35.6677103,17.3940815 34.1438748,18.2406662 C34.1410059,18.0927827 34.1723616,17.9462314 34.2355041,17.8124056 C33.5253769,18.0816831 31.7814318,19.170717 31.2744826,20.0977869 C31.2961622,19.9214437 31.3058121,19.7438352 31.3033658,19.5661873 C30.7687064,19.9637335 30.2808924,20.4204073 29.8492482,20.9274797 L29.822357,20.9493398 C25.7099931,19.4678166 22.085655,19.3684522 19.0230444,20.036181 C18.35176,19.4340327 17.2731235,18.5228611 15.7472961,15.525037 C15.647699,15.3441938 15.5879407,15.8976536 15.5082631,15.7237659 C14.9106805,14.3515434 14.5571108,12.102927 14.6118892,10.5568169 C14.6118892,10.5568169 13.3848531,11.1142512 12.3699587,13.4443464 C12.1817202,13.8626706 12.0602118,14.0941896 11.9396993,14.3257087 C11.8839249,14.3932765 12.0661876,13.5606028 12.0392964,13.6063104 C11.8630095,13.9044036 11.4058589,14.3207405 11.2056687,14.8602892 C11.0682247,15.2577468 10.8750064,15.483304 10.751506,15.9821133 L10.7226228,16.0278209 C10.7126631,15.8807616 10.7594738,15.4236854 10.7226228,15.5170879 C10.2466162,16.4737671 9.83665043,17.4617604 9.49558667,18.4741725 C8.94879864,20.2627318 8.31237323,22.7080898 8.21178017,25.8837761 C8.18787687,26.124238 8.21178017,26.3945091 8.18688089,26.6111235 C6.89211871,28.0846976 6.00968848,29.3327145 5.6770342,29.9805705 C4.00280709,32.5640449 2.15826897,36.5823414 0.369505208,42.9436505 C1.16503939,41.2055216 2.11640981,39.5426839 3.21200619,37.9754304 C1.72502162,41.3528264 0.287835593,46.6559046 0,54.8216713 C0.360857008,53.1317961 0.822142077,51.4648301 1.38141165,49.8296037 C1.12445116,55.274773 1.76087657,62.0255906 5.21091981,69.6468403 C7.25963198,74.1182385 11.9755542,83.2200178 23.4989377,90.3196045 C23.4989377,90.3196045 27.4190792,93.2309815 34.1558264,95.4130238 C34.6538119,95.5928733 35.1577732,95.7707356 35.6726901,95.942636 C35.5113429,95.8770555 35.3549754,95.8094877 35.2035878,95.738939 C39.6890237,97.0800589 44.3461227,97.7632181 49.0286601,97.7669665 C66.4760785,97.7818712 71.6222602,90.7915854 71.6222602,90.7915854 L71.5714657,90.8293438 C71.8178025,90.598156 72.0548436,90.3576941 72.2825889,90.1079583 C69.5297253,92.6993819 63.2441529,92.8742633 60.8986414,92.6864645 C64.9044364,91.5129709 67.5407714,90.5193269 72.6680297,88.5608545 C73.2656122,88.3382782 73.8791303,88.0852302 74.5085839,87.8017105 L74.7127579,87.7083079 C74.8372543,87.6506766 74.9607547,87.5960262 75.086247,87.5354139 C77.5845392,86.3604402 79.9336516,84.8927564 82.0839387,83.1633801 C87.2331083,79.0596303 88.3535755,75.0592194 88.9392064,72.4220881 C88.8575368,72.6744737 88.6035642,73.2637046 88.4242895,73.6462576 C87.0986522,76.4761558 84.1575501,78.2170201 80.9634714,79.7025179 C82.4829968,77.7128949 83.8920846,75.6416846 85.1843961,73.4982046 C86.2281736,72.4677957 86.5498722,70.8541178 87.3317094,69.7690585 Z" id="Shape" fill="url(#radialGradient-48)"></path>
                <path d="M81.191941,79.6234104 C83.2953695,77.3132381 85.1832665,74.671053 86.6151545,71.6710099 C90.2971523,63.9591695 95.9947694,51.1359236 91.5045282,37.743087 C87.9622268,27.1594359 83.0958032,21.3720765 76.9202249,15.7179197 C66.8870304,6.53687324 64.0851199,2.43741077 64.0851199,0 C64.0851199,0 52.5012955,12.8640019 57.5253765,26.2806957 C62.5494574,39.6973895 72.8380967,39.2033466 79.6453023,53.2065299 C87.6548948,69.6819157 73.1643876,87.6612993 61.1854219,92.6941748 C61.918828,92.5321446 87.8275196,86.6921004 89.1855681,71.9304569 C89.150644,72.2018326 88.5669127,76.2843962 81.191941,79.6234104 Z" id="Shape" fill="url(#radialGradient-49)"></path>
                <path d="M47.4979938,31.6505613 C47.5367118,30.7809642 47.0850017,30.1969359 39.8854381,29.5226759 C36.9230143,29.2490056 35.7892716,26.5152776 35.4427951,25.3640777 C34.3894668,28.0968141 33.953641,30.9653941 34.1879346,34.4348588 C34.3477705,36.7075119 35.8756426,39.1467469 36.6073136,40.5825243 C36.6073136,40.5825243 36.7701278,40.3713222 36.8445855,40.2939806 C38.2205639,38.8631611 43.9865685,36.682723 44.5276278,36.3733566 C45.125275,35.9925979 47.3977241,34.3347114 47.4979938,31.6505613 Z" id="Shape" fill="url(#linearGradient-50)"></path>
                <path d="M16.0471382,15.6001003 C15.9455232,15.418344 15.8845542,15.9745981 15.8032622,15.7998324 C15.1935723,14.4206818 14.8297906,12.1846802 14.9171795,10.6067961 C14.9171795,10.6067961 13.6652829,11.1670448 12.6298262,13.5089045 C12.4377739,13.9293407 12.3138036,14.1620287 12.1908495,14.393718 C12.1339451,14.4616269 12.3199005,13.6247492 12.2924645,13.6706876 C12.1126059,13.9702858 11.6461932,14.3887247 11.4439793,14.9070297 C11.2763146,15.3304619 11.1035691,15.5581565 10.9755343,16.0824535 C10.9359044,16.225262 11.0151641,15.4512998 10.980615,15.5451739 C8.5692914,20.1150459 8.10897552,27.0377628 8.36301298,26.7381645 C13.4925374,21.3593773 19.368932,20.0830888 19.368932,20.0830888 C18.7439999,19.6306954 17.3843914,18.3224497 16.046122,15.6001003 L16.0471382,15.6001003 Z" id="Shape" fill="url(#linearGradient-51)"></path>
                <path d="M34.8638558,71.7556231 C27.9088782,68.7751729 20.0002346,64.5723075 20.2995022,55.022252 C20.706506,42.446694 31.9868972,44.9325718 31.9868972,44.9325718 C31.5609397,45.0326877 30.4227255,45.8496334 30.0197119,46.7166371 C29.5937544,47.8008923 28.8156588,50.248726 31.1718919,52.8136953 C34.8718363,56.8373532 23.5704964,62.3607473 41.0138038,72.793825 C41.4537271,73.0341031 36.9238141,72.6506593 34.8648534,71.7566243 L34.8638558,71.7556231 Z" id="Shape" fill="url(#linearGradient-52)"></path>
                <path d="M32.3903229,65.723226 C37.3019329,67.4639291 43.0202232,67.1584716 46.4496079,65.231662 C48.7434808,63.9319506 51.6850822,61.8503894 53.4951456,62.3642053 C51.9274837,61.7330614 50.7403126,61.4387298 49.3127269,61.366917 C49.069332,61.366917 48.7782515,61.3618597 48.517968,61.3345506 C47.9948637,61.3327146 47.4720949,61.3617582 46.9522929,61.4215352 C46.0681237,61.504474 45.0875899,62.0718966 44.1964664,61.9808663 C44.1487809,61.9808663 45.0607667,61.5995501 44.9912253,61.6157333 C44.5193372,61.7168782 44.0057243,61.7381186 43.4642948,61.8058857 C43.1195681,61.8453321 42.8235204,61.8888244 42.4817741,61.9070305 C32.2492532,62.7900251 23.6062501,56.2621359 23.6062501,56.2621359 C22.8701046,58.7907574 26.9015192,63.777199 32.4002574,65.7262604 L32.3903229,65.723226 Z" id="Shape" fill="url(#linearGradient-53)"></path>
                <path d="M81.0473291,79.7815534 C91.4559763,69.6017593 96.7222561,57.2281385 94.4958288,43.3504922 C94.4958288,43.3504922 95.3852006,50.4674891 92.0125831,57.7467337 C93.6324388,50.640686 93.8213053,41.8096375 89.5143479,32.6630522 C83.7714048,20.4556605 74.3230793,14.0324463 70.7156276,11.3528721 C65.2504883,7.29270002 62.9860879,3.15886949 62.9431183,2.30582524 C61.3102718,5.6383715 56.3707611,17.0574189 62.4124931,26.8918146 C68.0724948,36.1050907 76.9881966,38.8364249 83.2307867,47.2922136 C94.730663,62.862013 81.0473291,79.7815534 81.0473291,79.7815534 Z" id="Shape" fill="url(#linearGradient-54)"></path>
                <path d="M79.8179062,53.0020588 C76.1813217,45.529628 71.6445828,42.2703762 67.3486176,38.7378641 C67.8481485,39.4334361 67.971033,39.6788736 68.2477731,40.1290081 C72.0272234,44.1355029 77.5999893,53.9072961 73.5537896,66.1742054 C65.9379426,89.2642153 35.4785507,78.391431 32.2815534,75.3368762 C33.5733401,88.700802 56.0592209,95.0950961 70.7054648,86.4292625 C79.037639,78.5842038 85.778308,65.2481009 79.8179062,53.0020588 Z" id="Shape" fill="url(#linearGradient-55)"></path>
            </g>
            <g id="download" transform="translate(337.000000, 1.000000)" fill="#0078D7" fill-rule="nonzero">
                <path d="M88.875,45.3214286 C88.875,18.6428571 70.2321429,0.321428571 45.4821429,0 C20.5714286,0.321428571 3.21428571,18.1607143 0,43.0714286 C9,28.2857143 26.8392857,18.3214286 42.5892857,18.3214286 C55.4464286,18.3214286 62.3571429,25.2321429 62.3571429,38.8928571 L27.9642857,38.8928571 C28.6071429,33.1071429 31.1785714,27.1607143 34.7142857,23.625 C20.8928571,29.25 11.25,41.7857143 11.25,58.6607143 C11.25,79.5535714 27.3214286,96.4285714 50.7857143,96.4285714 C62.6785714,96.4285714 72.3214286,93.8571429 80.6785714,89.5178571 L80.6785714,69.1071429 C73.125,73.6071429 64.125,76.3392857 54.1607143,76.3392857 C39.2142857,76.3392857 28.4464286,69.1071429 28.4464286,55.9285714 L88.875,55.9285714 L88.875,45.3214286 Z" id="Shape"></path>
            </g>
            <g id="download" transform="translate(230.000000, 5.000000)" fill-rule="nonzero">
                <path d="M45,0.661764706 C20.5147059,0.661764706 0.661764706,20.5147059 0.661764706,45 C0.661764706,68.7794118 19.3852941,88.1823529 42.8911765,89.2852941 C43.5970588,89.3205882 44.2941176,89.3382353 45,89.3382353 C56.3558824,89.3382353 66.7058824,85.0676471 74.55,78.0529412 C69.3529412,81.5029412 63.2735294,83.4794118 56.7794118,83.4794118 C46.2176471,83.4794118 36.7676471,78.2382353 30.4058824,69.9794118 C25.5,64.1911765 22.3323529,55.6411765 22.1117647,46.0411765 L22.1117647,43.95 C22.3323529,34.35 25.5,25.7911765 30.4058824,20.0117647 C36.7676471,11.7529412 46.2264706,6.51176471 56.7794118,6.51176471 C63.2735294,6.51176471 69.3529412,8.49705882 74.55,11.9470588 C66.75,4.96764706 56.4529412,0.705882353 45.1676471,0.661764706 L45,0.661764706 Z" id="Shape" fill="url(#linearGradient-56)"></path>
                <path d="M30.4058824,20.0117647 C34.4735294,15.2117647 39.7323529,12.3088235 45.4676471,12.3088235 C58.3764706,12.3088235 68.8411765,26.9470588 68.8411765,44.9911765 C68.8411765,63.0441176 58.3764706,77.6735294 45.4676471,77.6735294 C39.7235294,77.6735294 34.4735294,74.7794118 30.4058824,69.9794118 C36.7676471,78.2382353 46.2176471,83.4794118 56.7794118,83.4794118 C63.2735294,83.4794118 69.3529412,81.4941176 74.55,78.0529412 C83.6294118,69.9352941 89.3382353,58.1382353 89.3382353,45 C89.3382353,31.8705882 83.6294118,20.0647059 74.55,11.9470588 C69.3529412,8.49705882 63.2735294,6.52058824 56.7794118,6.52058824 C46.2176471,6.52058824 36.7676471,11.7617647 30.4058824,20.0205882" id="Shape" fill="url(#linearGradient-57)"></path>
            </g>
        </g>
    </g>
</svg>