<svg xmlns="http://www.w3.org/2000/svg" xmlns:xlink="http://www.w3.org/1999/xlink" width="750" height="407.36"><rect width="750" height="407.36" rx="5" ry="5" class="a"/><svg y="0%" x="0%"><circle cx="20" cy="20" r="6" fill="#ff5f58"/><circle cx="40" cy="20" r="6" fill="#ffbd2e"/><circle cx="60" cy="20" r="6" fill="#18c132"/></svg><svg height="347.36" viewBox="0 0 71 34.736" width="710" x="15" xmlns="http://www.w3.org/2000/svg" xmlns:xlink="http://www.w3.org/1999/xlink" y="50"><style>@keyframes n{0%{transform:translateX(0)}3.5%{transform:translateX(-71px)}6.9%{transform:translateX(-142px)}7%{transform:translateX(-213px)}7.5%{transform:translateX(-284px)}7.9%{transform:translateX(-426px)}23%{transform:translateX(-497px)}27.4%{transform:translateX(-568px)}31.7%{transform:translateX(-639px)}38.1%{transform:translateX(-710px)}40.9%{transform:translateX(-781px)}44.2%{transform:translateX(-852px)}44.8%{transform:translateX(-923px)}46.2%{transform:translateX(-994px)}54.7%{transform:translateX(-1065px)}55.6%{transform:translateX(-1136px)}56.4%{transform:translateX(-1207px)}57.3%{transform:translateX(-1278px)}57.9%{transform:translateX(-1349px)}58.5%{transform:translateX(-1420px)}60.3%{transform:translateX(-1704px)}60.4%{transform:translateX(-1775px)}60.5%{transform:translateX(-2059px)}61.1%{transform:translateX(-2130px)}61.6%{transform:translateX(-2272px)}to{transform:translateX(-2343px)}}.a{fill:#282d35}.f,.g{fill:#a8cc8c;font-weight:700}.g{fill:#66c2cd}.h{fill:#b9c0cb}.i{fill:#a8cc8c}.j{fill:#e88388}.k{fill:#71bef2}.p{fill:#e88388;font-weight:700}</style><g font-size="1.67" font-family="Monaco,Consolas,Menlo,'Bitstream Vera Sans Mono','Powerline Symbols',monospace"><defs><symbol id="1"><text y="1.67" class="f">➜</text><text x="3.006" y="1.67" class="g">lifehacks</text></symbol><symbol id="2"><text y="1.67" class="f">➜</text><text x="3.006" y="1.67" class="g">lifehacks</text><text x="13.026" y="1.67" class="h">tld</text></symbol><symbol id="3"><text y="1.67" class="f">➜</text><text x="3.006" y="1.67" class="g">lifehacks</text><text x="13.026" y="1.67" class="h">tldr</text></symbol><symbol id="4"><text y="1.67" class="f">➜</text><text x="3.006" y="1.67" class="g">lifehacks</text><text x="13.026" y="1.67" class="h">tldr</text><text x="18.036" y="1.67" class="h">docker</text></symbol><symbol id="5"><text y="1.67" class="i">-</text><text x="2.004" y="1.67" class="i">Stop</text><text x="7.014" y="1.67" class="i">a</text><text x="9.018" y="1.67" class="i">container:</text></symbol><symbol id="6"><text x="4.008" y="1.67" class="j">docker</text><text x="11.022" y="1.67" class="j">container</text><text x="21.042" y="1.67" class="j">stop</text><text x="26.052" y="1.67" class="k">container</text></symbol><symbol id="7"><text y="1.67" class="i">-</text><text x="2.004" y="1.67" class="i">Start</text><text x="8.016" y="1.67" class="i">a</text><text x="10.02" y="1.67" class="i">container</text><text x="20.04" y="1.67" class="i">from</text><text x="25.05" y="1.67" class="i">an</text><text x="28.056" y="1.67" class="i">image</text><text x="34.068" y="1.67" class="i">and</text><text x="38.076" y="1.67" class="i">get</text><text x="42.084" y="1.67" class="i">a</text><text x="44.088" y="1.67" class="i">shell</text><text x="50.1" y="1.67" class="i">inside</text><text x="57.114" y="1.67" class="i">of</text><text x="60.12" y="1.67" class="i">it:</text></symbol><symbol id="8"><text x="4.008" y="1.67" class="j">docker</text><text x="11.022" y="1.67" class="j">container</text><text x="21.042" y="1.67" class="j">run</text><text x="25.05" y="1.67" class="j">-it</text><text x="29.058" y="1.67" class="k">image</text><text x="35.07" y="1.67" class="j">bash</text></symbol><symbol id="9"><text y="1.67" class="i">-</text><text x="2.004" y="1.67" class="i">Run</text><text x="6.012" y="1.67" class="i">a</text><text x="8.016" y="1.67" class="i">command</text><text x="16.032" y="1.67" class="i">inside</text><text x="23.046" y="1.67" class="i">of</text><text x="26.052" y="1.67" class="i">an</text><text x="29.058" y="1.67" class="i">already</text><text x="37.074" y="1.67" class="i">running</text><text x="45.09" y="1.67" class="i">container:</text></symbol><symbol id="10"><text x="4.008" y="1.67" class="j">docker</text><text x="11.022" y="1.67" class="j">container</text><text x="21.042" y="1.67" class="j">exec</text><text x="26.052" y="1.67" class="k">container</text><text x="36.072" y="1.67" class="k">command</text></symbol><symbol id="11"><text y="1.67" class="i">-</text><text x="2.004" y="1.67" class="i">Remove</text><text x="9.018" y="1.67" class="i">a</text><text x="11.022" y="1.67" class="i">stopped</text><text x="19.038" y="1.67" class="i">container:</text></symbol><symbol id="12"><text x="4.008" y="1.67" class="j">docker</text><text x="11.022" y="1.67" class="j">container</text><text x="21.042" y="1.67" class="j">rm</text><text x="24.048" y="1.67" class="k">container</text></symbol><symbol id="13"><text y="1.67" class="i">-</text><text x="2.004" y="1.67" class="i">Fetch</text><text x="8.016" y="1.67" class="i">and</text><text x="12.024" y="1.67" class="i">follow</text><text x="19.038" y="1.67" class="i">the</text><text x="23.046" y="1.67" class="i">logs</text><text x="28.056" y="1.67" class="i">of</text><text x="31.062" y="1.67" class="i">a</text><text x="33.066" y="1.67" class="i">container:</text></symbol><symbol id="14"><text x="4.008" y="1.67" class="j">docker</text><text x="11.022" y="1.67" class="j">container</text><text x="21.042" y="1.67" class="j">logs</text><text x="26.052" y="1.67" class="j">-f</text><text x="29.058" y="1.67" class="k">container</text></symbol><symbol id="a"><path fill="transparent" d="M0 0h71v16H0z"/></symbol><symbol id="b"><path fill="#6f7683" d="M0 0h1.102v2.171H0z"/></symbol></defs><path class="a" d="M0 0h71v34.736H0z"/><g style="animation-duration:13.602739999999999s;animation-iteration-count:infinite;animation-name:n;animation-timing-function:steps(1,end)"><svg width="2414"><svg><use xlink:href="#a"/><use xlink:href="#b" x="-.004"/></svg><svg x="71"><use xlink:href="#a"/><use xlink:href="#b" x="-.004"/></svg><svg x="142"><use xlink:href="#a"/><use xlink:href="#b" x="-.004"/></svg><svg x="213"><use xlink:href="#a"/><use xlink:href="#b" x="-.004"/></svg><svg x="284"><use xlink:href="#a"/><use xlink:href="#b" x="-.004"/></svg><svg x="355"><use xlink:href="#a"/><use xlink:href="#b" x="12.996"/><use xlink:href="#1"/></svg><svg x="426"><use xlink:href="#a"/><use xlink:href="#b" x="12.996"/><use xlink:href="#1"/></svg><svg x="497"><use xlink:href="#a"/><use xlink:href="#b" x="12.996"/><use xlink:href="#1"/></svg><svg x="568"><use xlink:href="#a"/><use xlink:href="#b" x="13.996"/><text y="1.67" class="f">➜</text><text x="3.006" y="1.67" class="g">lifehacks</text><text x="13.026" y="1.67" class="h">t</text></svg><svg x="639"><use xlink:href="#a"/><use xlink:href="#b" x="14.996"/><text y="1.67" class="f">➜</text><text x="3.006" y="1.67" class="g">lifehacks</text><text x="13.026" y="1.67" class="h">tl</text></svg><svg x="710"><use xlink:href="#a"/><use xlink:href="#b" x="15.996"/><use xlink:href="#2"/></svg><svg x="781"><use xlink:href="#a"/><use xlink:href="#b" x="16.996"/><text y="1.67" class="f">➜</text><text x="3.006" y="1.67" class="g">lifehacks</text><text x="13.026" y="1.67" class="h">tlde</text></svg><svg x="852"><use xlink:href="#a"/><use xlink:href="#b" x="15.996"/><use xlink:href="#2"/></svg><svg x="923"><use xlink:href="#a"/><use xlink:href="#b" x="16.996"/><use xlink:href="#3"/></svg><svg x="994"><use xlink:href="#a"/><use xlink:href="#b" x="17.996"/><use xlink:href="#3"/></svg><svg x="1065"><use xlink:href="#a"/><use xlink:href="#b" x="18.996"/><text y="1.67" class="f">➜</text><text x="3.006" y="1.67" class="g">lifehacks</text><text x="13.026" y="1.67" class="h">tldr</text><text x="18.036" y="1.67" class="h">d</text></svg><svg x="1136"><use xlink:href="#a"/><use xlink:href="#b" x="19.996"/><text y="1.67" class="f">➜</text><text x="3.006" y="1.67" class="g">lifehacks</text><text x="13.026" y="1.67" class="h">tldr</text><text x="18.036" y="1.67" class="h">do</text></svg><svg x="1207"><use xlink:href="#a"/><use xlink:href="#b" x="20.996"/><text y="1.67" class="f">➜</text><text x="3.006" y="1.67" class="g">lifehacks</text><text x="13.026" y="1.67" class="h">tldr</text><text x="18.036" y="1.67" class="h">doc</text></svg><svg x="1278"><use xlink:href="#a"/><use xlink:href="#b" x="21.996"/><text y="1.67" class="f">➜</text><text x="3.006" y="1.67" class="g">lifehacks</text><text x="13.026" y="1.67" class="h">tldr</text><text x="18.036" y="1.67" class="h">dock</text></svg><svg x="1349"><use xlink:href="#a"/><use xlink:href="#b" x="22.996"/><text y="1.67" class="f">➜</text><text x="3.006" y="1.67" class="g">lifehacks</text><text x="13.026" y="1.67" class="h">tldr</text><text x="18.036" y="1.67" class="h">docke</text></svg><svg x="1420"><use xlink:href="#a"/><use xlink:href="#b" x="23.996"/><use xlink:href="#4"/></svg><svg x="1491"><use xlink:href="#a"/><use xlink:href="#b" x="23.996"/><use xlink:href="#4"/></svg><svg x="1562"><use xlink:href="#a"/><use xlink:href="#b" x="-.004" y="2.146"/><use xlink:href="#4"/></svg><svg x="1633"><use xlink:href="#a"/><use xlink:href="#b" x="-.004" y="2.146"/><use xlink:href="#4"/></svg><svg x="1704"><use xlink:href="#a"/><use xlink:href="#b" x="-.004" y="2.146"/><use xlink:href="#4"/></svg><svg x="1775"><use xlink:href="#a"/><use xlink:href="#b" x="-.004" y="6.488"/><use xlink:href="#4"/><text y="3.841" class="p">Local</text><text x="6.012" y="3.841" class="p">data</text><text x="11.022" y="3.841" class="p">is</text><text x="14.028" y="3.841" class="p">older</text><text x="20.04" y="3.841" class="p">than</text><text x="25.05" y="3.841" class="p">two</text><text x="29.058" y="3.841" class="p">weeks,</text><text x="36.072" y="3.841" class="p">use</text><text x="40.08" y="3.841" class="p">--update</text><text x="49.098" y="3.841" class="p">to</text><text x="52.104" y="3.841" class="p">update</text><text x="59.118" y="3.841" class="p">it.</text></svg><svg x="1846"><use xlink:href="#a"/><use xlink:href="#b" x="-.004" y="32.54"/><text x="4.008" y="1.67" class="j">docker</text><text x="11.022" y="1.67" class="j">container</text><text x="21.042" y="1.67" class="j">ls</text><text y="6.012" class="i">-</text><text x="2.004" y="6.012" class="i">List</text><text x="7.014" y="6.012" class="i">all</text><text x="11.022" y="6.012" class="i">docker</text><text x="18.036" y="6.012" class="i">containers</text><text x="29.058" y="6.012" class="i">(running</text><text x="38.076" y="6.012" class="i">and</text><text x="42.084" y="6.012" class="i">stopped):</text><text x="4.008" y="8.183" class="j">docker</text><text x="11.022" y="8.183" class="j">container</text><text x="21.042" y="8.183" class="j">ls</text><text x="24.048" y="8.183" class="j">-a</text><text y="12.525" class="i">-</text><text x="2.004" y="12.525" class="i">Start</text><text x="8.016" y="12.525" class="i">a</text><text x="10.02" y="12.525" class="i">container:</text><text x="4.008" y="14.696" class="j">docker</text><text x="11.022" y="14.696" class="j">container</text><text x="21.042" y="14.696" class="j">start</text><text x="27.054" y="14.696" class="k">container</text><use xlink:href="#5" y="17.368"/><use xlink:href="#6" y="19.539"/><use xlink:href="#7" y="23.881"/><use xlink:href="#8" y="26.052"/><use xlink:href="#9" y="30.394"/></svg><svg x="1917"><use xlink:href="#a"/><use xlink:href="#b" x="-.004" y="32.54"/><use xlink:href="#5" y="2.171"/><use xlink:href="#6" y="4.342"/><use xlink:href="#7" y="8.684"/><use xlink:href="#8" y="10.855"/><use xlink:href="#9" y="15.197"/><use xlink:href="#10" y="17.368"/><use xlink:href="#11" y="21.71"/><use xlink:href="#12" y="23.881"/><use xlink:href="#13" y="28.223"/><use xlink:href="#14" y="30.394"/></svg><svg x="1988"><use xlink:href="#a"/><use xlink:href="#b" x="-.004" y="32.54"/><use xlink:href="#5" y="2.171"/><use xlink:href="#6" y="4.342"/><use xlink:href="#7" y="8.684"/><use xlink:href="#8" y="10.855"/><use xlink:href="#9" y="15.197"/><use xlink:href="#10" y="17.368"/><use xlink:href="#11" y="21.71"/><use xlink:href="#12" y="23.881"/><use xlink:href="#13" y="28.223"/><use xlink:href="#14" y="30.394"/></svg><svg x="2059"><use xlink:href="#a"/><use xlink:href="#b" x="-.004" y="32.54"/><use xlink:href="#5" y="2.171"/><use xlink:href="#6" y="4.342"/><use xlink:href="#7" y="8.684"/><use xlink:href="#8" y="10.855"/><use xlink:href="#9" y="15.197"/><use xlink:href="#10" y="17.368"/><use xlink:href="#11" y="21.71"/><use xlink:href="#12" y="23.881"/><use xlink:href="#13" y="28.223"/><use xlink:href="#14" y="30.394"/></svg><svg x="2130"><use xlink:href="#a"/><use xlink:href="#b" x="-.004" y="32.54"/><use xlink:href="#5" y="2.171"/><use xlink:href="#6" y="4.342"/><use xlink:href="#7" y="8.684"/><use xlink:href="#8" y="10.855"/><use xlink:href="#9" y="15.197"/><use xlink:href="#10" y="17.368"/><use xlink:href="#11" y="21.71"/><use xlink:href="#12" y="23.881"/><use xlink:href="#13" y="28.223"/><use xlink:href="#14" y="30.394"/></svg><svg x="2201"><use xlink:href="#a"/><use xlink:href="#b" x="12.996" y="32.54"/><use xlink:href="#5" y="2.171"/><use xlink:href="#6" y="4.342"/><use xlink:href="#7" y="8.684"/><use xlink:href="#8" y="10.855"/><use xlink:href="#9" y="15.197"/><use xlink:href="#10" y="17.368"/><use xlink:href="#11" y="21.71"/><use xlink:href="#12" y="23.881"/><use xlink:href="#13" y="28.223"/><use xlink:href="#14" y="30.394"/><use xlink:href="#1" y="32.565"/></svg><svg x="2272"><use xlink:href="#a"/><use xlink:href="#b" x="12.996" y="32.54"/><use xlink:href="#5" y="2.171"/><use xlink:href="#6" y="4.342"/><use xlink:href="#7" y="8.684"/><use xlink:href="#8" y="10.855"/><use xlink:href="#9" y="15.197"/><use xlink:href="#10" y="17.368"/><use xlink:href="#11" y="21.71"/><use xlink:href="#12" y="23.881"/><use xlink:href="#13" y="28.223"/><use xlink:href="#14" y="30.394"/><use xlink:href="#1" y="32.565"/></svg><svg x="2343"><use xlink:href="#a"/><use xlink:href="#b" x="-.004" y="32.54"/><use xlink:href="#5"/><use xlink:href="#6" y="2.171"/><use xlink:href="#7" y="6.513"/><use xlink:href="#8" y="8.684"/><use xlink:href="#9" y="13.026"/><use xlink:href="#10" y="15.197"/><use xlink:href="#11" y="19.539"/><use xlink:href="#12" y="21.71"/><use xlink:href="#13" y="26.052"/><use xlink:href="#14" y="28.223"/><use xlink:href="#1" y="30.394"/></svg></svg></g></g></svg></svg>