<svg xmlns="http://www.w3.org/2000/svg" xmlns:xlink="http://www.w3.org/1999/xlink" width="750" height="407.36"><rect width="750" height="407.36" rx="5" ry="5" class="a"/><svg y="0%" x="0%"><circle cx="20" cy="20" r="6" fill="#ff5f58"/><circle cx="40" cy="20" r="6" fill="#ffbd2e"/><circle cx="60" cy="20" r="6" fill="#18c132"/></svg><svg height="347.36" viewBox="0 0 71 34.736" width="710" x="15" xmlns="http://www.w3.org/2000/svg" xmlns:xlink="http://www.w3.org/1999/xlink" y="50"><style>@keyframes o{0%{transform:translateX(0)}4.4%{transform:translateX(-71px)}9%{transform:translateX(-213px)}9.7%{transform:translateX(-284px)}10.3%{transform:translateX(-426px)}25.5%{transform:translateX(-497px)}29.6%{transform:translateX(-568px)}32.3%{transform:translateX(-639px)}50.8%{transform:translateX(-710px)}53.5%{transform:translateX(-781px)}54.8%{transform:translateX(-852px)}69%{transform:translateX(-923px)}71.4%{transform:translateX(-994px)}76.1%{transform:translateX(-1278px)}76.4%{transform:translateX(-1633px)}77.5%{transform:translateX(-1775px)}78.3%{transform:translateX(-1917px)}to{transform:translateX(-1988px)}}.a{fill:#282d35}.f,.g{fill:#a8cc8c;font-weight:700}.g{fill:#66c2cd}.h{fill:#b9c0cb}.j{fill:#a8cc8c}.k{fill:#e88388}.l{fill:#71bef2}</style><g font-size="1.67" font-family="Monaco,Consolas,Menlo,'Bitstream Vera Sans Mono','Powerline Symbols',monospace"><defs><symbol id="1"><text y="1.67" class="f">➜</text><text x="3.006" y="1.67" class="g">lifehacks</text></symbol><symbol id="2"><text y="1.67" class="f">➜</text><text x="3.006" y="1.67" class="g">lifehacks</text><text x="13.026" y="1.67" class="h">tldr</text></symbol><symbol id="3"><text y="1.67" class="f">➜</text><text x="3.006" y="1.67" class="g">lifehacks</text><text x="13.026" y="1.67" class="h">tldr</text><text x="18.036" y="1.67" class="h">ln</text></symbol><symbol id="4"><text y="1.67" fill="#b9c0cb" font-weight="700">ln</text></symbol><symbol id="5"><text y="1.67" class="h">Creates</text><text x="8.016" y="1.67" class="h">links</text><text x="14.028" y="1.67" class="h">to</text><text x="17.034" y="1.67" class="h">files</text><text x="23.046" y="1.67" class="h">and</text><text x="27.054" y="1.67" class="h">folders.</text></symbol><symbol id="6"><text y="1.67" class="j">-</text><text x="2.004" y="1.67" class="j">Create</text><text x="9.018" y="1.67" class="j">a</text><text x="11.022" y="1.67" class="j">symbolic</text><text x="20.04" y="1.67" class="j">link</text><text x="25.05" y="1.67" class="j">to</text><text x="28.056" y="1.67" class="j">a</text><text x="30.06" y="1.67" class="j">file</text><text x="35.07" y="1.67" class="j">(or</text><text x="39.078" y="1.67" class="j">folder):</text></symbol><symbol id="7"><text x="4.008" y="1.67" class="k">ln</text><text x="7.014" y="1.67" class="k">-s</text><text x="10.02" y="1.67" class="l">path/to/file</text><text x="23.046" y="1.67" class="l">path/to/symlink</text></symbol><symbol id="8"><text y="1.67" class="j">-</text><text x="2.004" y="1.67" class="j">Overwrite</text><text x="12.024" y="1.67" class="j">an</text><text x="15.03" y="1.67" class="j">existing</text><text x="24.048" y="1.67" class="j">symbolic</text><text x="33.066" y="1.67" class="j">to</text><text x="36.072" y="1.67" class="j">point</text><text x="42.084" y="1.67" class="j">to</text><text x="45.09" y="1.67" class="j">a</text><text x="47.094" y="1.67" class="j">different</text><text x="57.114" y="1.67" class="j">file:</text></symbol><symbol id="9"><text x="4.008" y="1.67" class="k">ln</text><text x="7.014" y="1.67" class="k">-sf</text><text x="11.022" y="1.67" class="l">path/to/new_file</text><text x="28.056" y="1.67" class="l">path/to/symlink</text></symbol><symbol id="10"><text y="1.67" class="j">-</text><text x="2.004" y="1.67" class="j">Create</text><text x="9.018" y="1.67" class="j">a</text><text x="11.022" y="1.67" class="j">hard</text><text x="16.032" y="1.67" class="j">link</text><text x="21.042" y="1.67" class="j">to</text><text x="24.048" y="1.67" class="j">a</text><text x="26.052" y="1.67" class="j">file:</text></symbol><symbol id="11"><text x="4.008" y="1.67" class="k">ln</text><text x="7.014" y="1.67" class="l">path/to/file</text><text x="20.04" y="1.67" class="l">path/to/hardlink</text></symbol><symbol id="a"><path fill="transparent" d="M0 0h71v16H0z"/></symbol><symbol id="b"><path fill="#6f7683" d="M0 0h1.102v2.171H0z"/></symbol></defs><path class="a" d="M0 0h71v34.736H0z"/><g style="animation-duration:10.788045s;animation-iteration-count:infinite;animation-name:o;animation-timing-function:steps(1,end)"><svg width="2059"><svg><use xlink:href="#a"/><use xlink:href="#b" x="-.004"/></svg><svg x="71"><use xlink:href="#a"/><use xlink:href="#b" x="-.004"/></svg><svg x="142"><use xlink:href="#a"/><use xlink:href="#b" x="-.004"/></svg><svg x="213"><use xlink:href="#a"/><use xlink:href="#b" x="-.004"/></svg><svg x="284"><use xlink:href="#a"/><use xlink:href="#b" x="-.004"/></svg><svg x="355"><use xlink:href="#a"/><use xlink:href="#b" x="12.996"/><use xlink:href="#1"/></svg><svg x="426"><use xlink:href="#a"/><use xlink:href="#b" x="12.996"/><use xlink:href="#1"/></svg><svg x="497"><use xlink:href="#a"/><use xlink:href="#b" x="12.996"/><use xlink:href="#1"/></svg><svg x="568"><use xlink:href="#a"/><use xlink:href="#b" x="13.996"/><text y="1.67" class="f">➜</text><text x="3.006" y="1.67" class="g">lifehacks</text><text x="13.026" y="1.67" class="h">t</text></svg><svg x="639"><use xlink:href="#a"/><use xlink:href="#b" x="14.996"/><text y="1.67" class="f">➜</text><text x="3.006" y="1.67" class="g">lifehacks</text><text x="13.026" y="1.67" class="h">tl</text></svg><svg x="710"><use xlink:href="#a"/><use xlink:href="#b" x="15.996"/><text y="1.67" class="f">➜</text><text x="3.006" y="1.67" class="g">lifehacks</text><text x="13.026" y="1.67" class="h">tld</text></svg><svg x="781"><use xlink:href="#a"/><use xlink:href="#b" x="16.996"/><use xlink:href="#2"/></svg><svg x="852"><use xlink:href="#a"/><use xlink:href="#b" x="17.996"/><use xlink:href="#2"/></svg><svg x="923"><use xlink:href="#a"/><use xlink:href="#b" x="18.996"/><text y="1.67" class="f">➜</text><text x="3.006" y="1.67" class="g">lifehacks</text><text x="13.026" y="1.67" class="h">tldr</text><text x="18.036" y="1.67" class="h">l</text></svg><svg x="994"><use xlink:href="#a"/><use xlink:href="#b" x="19.996"/><use xlink:href="#3"/></svg><svg x="1065"><use xlink:href="#a"/><use xlink:href="#b" x="19.996"/><use xlink:href="#3"/></svg><svg x="1136"><use xlink:href="#a"/><use xlink:href="#b" x="-.004" y="2.146"/><use xlink:href="#3"/></svg><svg x="1207"><use xlink:href="#a"/><use xlink:href="#b" x="-.004" y="2.146"/><use xlink:href="#3"/></svg><svg x="1278"><use xlink:href="#a"/><use xlink:href="#b" x="-.004" y="2.146"/><use xlink:href="#3"/></svg><svg x="1349"><use xlink:href="#a"/><use xlink:href="#b" x="-.004" y="19.514"/><use xlink:href="#3"/><use xlink:href="#4" y="4.342"/><use xlink:href="#5" y="8.684"/><use xlink:href="#6" y="13.026"/><use xlink:href="#7" y="15.197"/></svg><svg x="1420"><use xlink:href="#a"/><use xlink:href="#b" x="-.004" y="30.369"/><use xlink:href="#3"/><use xlink:href="#4" y="4.342"/><use xlink:href="#5" y="8.684"/><use xlink:href="#6" y="13.026"/><use xlink:href="#7" y="15.197"/><use xlink:href="#8" y="19.539"/><use xlink:href="#9" y="21.71"/><use xlink:href="#10" y="26.052"/><use xlink:href="#11" y="28.223"/></svg><svg x="1491"><use xlink:href="#a"/><use xlink:href="#b" x="-.004" y="30.369"/><use xlink:href="#3"/><use xlink:href="#4" y="4.342"/><use xlink:href="#5" y="8.684"/><use xlink:href="#6" y="13.026"/><use xlink:href="#7" y="15.197"/><use xlink:href="#8" y="19.539"/><use xlink:href="#9" y="21.71"/><use xlink:href="#10" y="26.052"/><use xlink:href="#11" y="28.223"/></svg><svg x="1562"><use xlink:href="#a"/><use xlink:href="#b" x="-.004" y="30.369"/><use xlink:href="#3"/><use xlink:href="#4" y="4.342"/><use xlink:href="#5" y="8.684"/><use xlink:href="#6" y="13.026"/><use xlink:href="#7" y="15.197"/><use xlink:href="#8" y="19.539"/><use xlink:href="#9" y="21.71"/><use xlink:href="#10" y="26.052"/><use xlink:href="#11" y="28.223"/></svg><svg x="1633"><use xlink:href="#a"/><use xlink:href="#b" x="-.004" y="30.369"/><use xlink:href="#3"/><use xlink:href="#4" y="4.342"/><use xlink:href="#5" y="8.684"/><use xlink:href="#6" y="13.026"/><use xlink:href="#7" y="15.197"/><use xlink:href="#8" y="19.539"/><use xlink:href="#9" y="21.71"/><use xlink:href="#10" y="26.052"/><use xlink:href="#11" y="28.223"/></svg><svg x="1704"><use xlink:href="#a"/><use xlink:href="#b" x="-.004" y="30.369"/><use xlink:href="#3"/><use xlink:href="#4" y="4.342"/><use xlink:href="#5" y="8.684"/><use xlink:href="#6" y="13.026"/><use xlink:href="#7" y="15.197"/><use xlink:href="#8" y="19.539"/><use xlink:href="#9" y="21.71"/><use xlink:href="#10" y="26.052"/><use xlink:href="#11" y="28.223"/></svg><svg x="1775"><use xlink:href="#a"/><use xlink:href="#b" x="-.004" y="30.369"/><use xlink:href="#3"/><use xlink:href="#4" y="4.342"/><use xlink:href="#5" y="8.684"/><use xlink:href="#6" y="13.026"/><use xlink:href="#7" y="15.197"/><use xlink:href="#8" y="19.539"/><use xlink:href="#9" y="21.71"/><use xlink:href="#10" y="26.052"/><use xlink:href="#11" y="28.223"/></svg><svg x="1846"><use xlink:href="#a"/><use xlink:href="#b" x="12.996" y="30.369"/><use xlink:href="#3"/><use xlink:href="#4" y="4.342"/><use xlink:href="#5" y="8.684"/><use xlink:href="#6" y="13.026"/><use xlink:href="#7" y="15.197"/><use xlink:href="#8" y="19.539"/><use xlink:href="#9" y="21.71"/><use xlink:href="#10" y="26.052"/><use xlink:href="#11" y="28.223"/><use xlink:href="#1" y="30.394"/></svg><svg x="1917"><use xlink:href="#a"/><use xlink:href="#b" x="12.996" y="30.369"/><use xlink:href="#3"/><use xlink:href="#4" y="4.342"/><use xlink:href="#5" y="8.684"/><use xlink:href="#6" y="13.026"/><use xlink:href="#7" y="15.197"/><use xlink:href="#8" y="19.539"/><use xlink:href="#9" y="21.71"/><use xlink:href="#10" y="26.052"/><use xlink:href="#11" y="28.223"/><use xlink:href="#1" y="30.394"/></svg><svg x="1988"><use xlink:href="#a"/><use xlink:href="#b" x="-.004" y="32.54"/><use xlink:href="#3"/><use xlink:href="#4" y="4.342"/><use xlink:href="#5" y="8.684"/><use xlink:href="#6" y="13.026"/><use xlink:href="#7" y="15.197"/><use xlink:href="#8" y="19.539"/><use xlink:href="#9" y="21.71"/><use xlink:href="#10" y="26.052"/><use xlink:href="#11" y="28.223"/><use xlink:href="#1" y="30.394"/></svg></svg></g></g></svg></svg>