<?xml version="1.0" encoding="UTF-8"?>
<svg width="1057px" height="1058px" viewBox="0 0 1057 1058" version="1.1" xmlns="http://www.w3.org/2000/svg" xmlns:xlink="http://www.w3.org/1999/xlink">
    <!-- Generator: Sketch 51 (57462) - http://www.bohemiancoding.com/sketch -->
    <title>download</title>
    <desc>Created with Sketch.</desc>
    <defs>
        <radialGradient cx="50.0007192%" cy="50.0000189%" fx="50.0007192%" fy="50.0000189%" r="50.0007286%" gradientTransform="translate(0.500007,0.500000),scale(1.000000,0.999991),translate(-0.500007,-0.500000)" id="radialGradient-1">
            <stop stop-color="#FFFFFF" stop-opacity="0.1" offset="0%"></stop>
            <stop stop-color="#FFFFFF" stop-opacity="0" offset="100%"></stop>
        </radialGradient>
    </defs>
    <g id="Page-1" stroke="none" stroke-width="1" fill="none" fill-rule="evenodd">
        <g id="download" fill-rule="nonzero">
            <path d="M215.6,842.14 L34.84,661.38 C13.43,639.37 0.08,608.3 0.08,577.95 C0.08,563.9 8.02,541.92 13.98,529.28 L180.84,181.66 L215.6,842.14 Z" id="Shape" fill="#01579B"></path>
            <path d="M834.37,216.42 L653.61,35.66 C637.82,19.81 604.94,0.9 577.13,0.9 C553.23,0.9 529.77,5.68 514.56,14.8 L180.84,181.66 L834.37,216.42 Z" id="Shape" fill="#40C4FF"></path>
            <polygon id="Shape" fill="#40C4FF" points="431.13 1057.66 869.13 1057.66 869.13 869.95 542.37 765.66 243.41 869.95"></polygon>
            <path d="M180.84,744.8 C180.84,800.57 187.83,814.25 215.6,842.13 L243.41,869.94 L869.13,869.94 L563.22,522.33 L180.84,181.66 L180.84,744.8 Z" id="Shape" fill="#29B6F6"></path>
            <path d="M737.03,181.66 L180.84,181.66 L869.13,869.95 L1056.84,869.95 L1056.84,438.9 L834.37,216.42 C803.12,185.05 775.37,181.66 737.03,181.66 Z" id="Shape" fill="#01579B"></path>
            <path d="M222.56,849.09 C194.75,821.17 187.8,793.66 187.8,744.8 L187.8,188.61 L180.849697,181.66 L180.85,744.8 C180.84,793.66 180.84,807.21 222.56,849.09 L243.42,869.95 L222.56,849.09 Z" id="Shape" fill="#FFFFFF" opacity="0.2"></path>
            <polygon id="Shape" fill="#263238" opacity="0.2" points="1049.89 431.95 1049.89 863 862.18 863 869.13 869.95 1056.85 869.95 1056.85 438.9"></polygon>
            <path d="M834.37,216.42 C799.91,181.96 771.64,181.66 730.08,181.66 L180.84,181.66 L187.79,188.61 L730.08,188.61 C750.86,188.61 803.2,185.14 834.37,216.42 Z" id="Shape" fill="#FFFFFF" opacity="0.2"></path>
            <path d="M1049.89,431.95 L834.37,216.42 L653.61,35.66 C637.82,19.81 604.94,0.9 577.13,0.9 C553.23,0.9 529.77,5.68 514.56,14.8 L180.84,181.66 L13.98,529.28 C8.02,541.92 0.08,563.89 0.08,577.95 C0.08,608.3 13.43,639.36 34.84,661.38 L201.42,826.76 C205.41,831.62 210.08,836.6 215.6,842.14 L222.55,849.09 L243.41,869.95 L424.17,1050.71 L431.12,1057.66 L862.17,1057.66 L869.12,1057.66 L869.12,869.95 L1056.83,869.95 L1056.83,869.45 L1056.83,438.9 L1049.89,431.95 Z" id="Shape" fill="url(#radialGradient-1)" opacity="0.2"></path>
        </g>
    </g>
</svg>