<svg xmlns="http://www.w3.org/2000/svg" xmlns:xlink="http://www.w3.org/1999/xlink" width="750" height="407.36"><rect width="750" height="407.36" rx="5" ry="5" class="a"/><svg y="0%" x="0%"><circle cx="20" cy="20" r="6" fill="#ff5f58"/><circle cx="40" cy="20" r="6" fill="#ffbd2e"/><circle cx="60" cy="20" r="6" fill="#18c132"/></svg><svg height="347.36" viewBox="0 0 71 34.736" width="710" x="15" xmlns="http://www.w3.org/2000/svg" xmlns:xlink="http://www.w3.org/1999/xlink" y="50"><style>@keyframes o{0%{transform:translateX(0)}4.1%{transform:translateX(-71px)}4.2%{transform:translateX(-142px)}11%{transform:translateX(-284px)}11.7%{transform:translateX(-355px)}12.2%{transform:translateX(-497px)}19.5%{transform:translateX(-568px)}20.8%{transform:translateX(-639px)}21.8%{transform:translateX(-710px)}24.4%{transform:translateX(-781px)}32.6%{transform:translateX(-1065px)}42.3%{transform:translateX(-1136px)}53%{transform:translateX(-1207px)}55%{transform:translateX(-1278px)}60.4%{transform:translateX(-1349px)}68.5%{transform:translateX(-1420px)}71.1%{transform:translateX(-1491px)}81.1%{transform:translateX(-1633px)}81.8%{transform:translateX(-1704px)}82.6%{transform:translateX(-1846px)}to{transform:translateX(-1917px)}}.a{fill:#282d35}.f,.g{fill:#a8cc8c;font-weight:700}.g{fill:#66c2cd}.h{fill:#b9c0cb}.i{fill:#dbab79;font-weight:700;text-decoration:underline}.j{fill:#e88388}.k{fill:#a8cc8c}.l{fill:#71bef2;font-weight:700}</style><g font-size="1.67" font-family="Monaco,Consolas,Menlo,'Bitstream Vera Sans Mono','Powerline Symbols',monospace"><defs><symbol id="1"><text y="1.67" class="f">➜</text><text x="3.006" y="1.67" class="g">all2</text></symbol><symbol id="2"><text y="1.67" class="f">➜</text><text x="3.006" y="1.67" class="g">all2</text><text x="9.018" y="1.67" class="h">git-standup</text><text x="21.042" y="1.67" class="h">-d</text><text x="24.048" y="1.67" class="h">3</text></symbol><symbol id="3"><text y="1.67" class="i">/Users/alexey.zolotykh/all2/mvp-proofing-v2</text></symbol><symbol id="4"><text y="1.67" class="j">20e11d8e</text><text x="9.018" y="1.67" class="h">-</text><text x="11.022" y="1.67" class="h">Add</text><text x="15.03" y="1.67" class="h">wrike_common</text><text x="28.056" y="1.67" class="h">to</text><text x="31.062" y="1.67" class="h">override</text><text x="40.08" y="1.67" class="h">section</text><text x="48.096" y="1.67" class="k">(2</text><text x="51.102" y="1.67" class="k">days</text><text x="56.112" y="1.67" class="k">ago)</text><text x="61.122" y="1.67" class="l">&lt;Alexey</text><text x="69.138" y="1.67" class="l">Zo</text></symbol><symbol id="5"><text y="1.67" class="l">lotykh&gt;</text></symbol><symbol id="6"><text y="1.67" class="i">/Users/alexey.zolotykh/all2/wrike-custom-field-view</text></symbol><symbol id="7"><text y="1.67" class="j">f33bbcc</text><text x="8.016" y="1.67" class="h">-</text><text x="10.02" y="1.67" class="h">Add</text><text x="14.028" y="1.67" class="h">wrike_commons</text><text x="28.056" y="1.67" class="h">and</text><text x="32.064" y="1.67" class="h">utils</text><text x="38.076" y="1.67" class="h">to</text><text x="41.082" y="1.67" class="h">repos</text><text x="47.094" y="1.67" class="k">(2</text><text x="50.1" y="1.67" class="k">days</text><text x="55.11" y="1.67" class="k">ago)</text><text x="60.12" y="1.67" class="l">&lt;Alexey</text><text x="68.136" y="1.67" class="l">Zol</text></symbol><symbol id="8"><text y="1.67" class="l">otykh&gt;</text></symbol><symbol id="9"><text y="1.67" class="i">/Users/alexey.zolotykh/all2/wrike-date-picker</text></symbol><symbol id="10"><text y="1.67" class="j">7d4ffe5</text><text x="8.016" y="1.67" class="h">-</text><text x="10.02" y="1.67" class="h">Update</text><text x="17.034" y="1.67" class="h">build_cli</text><text x="27.054" y="1.67" class="h">to</text><text x="30.06" y="1.67" class="h">6.0.0</text><text x="36.072" y="1.67" class="h">version</text><text x="44.088" y="1.67" class="h">and</text><text x="48.096" y="1.67" class="h">regenerate</text><text x="59.118" y="1.67" class="h">models</text><text x="66.132" y="1.67" class="k">(2</text><text x="69.138" y="1.67" class="k">da</text></symbol><symbol id="11"><text y="1.67" class="k">ys</text><text x="3.006" y="1.67" class="k">ago)</text><text x="8.016" y="1.67" class="l">&lt;Alexey</text><text x="16.032" y="1.67" class="l">Zolotykh&gt;</text></symbol><symbol id="12"><text y="1.67" class="j">9230297</text><text x="8.016" y="1.67" class="h">-</text><text x="10.02" y="1.67" class="h">Add</text><text x="14.028" y="1.67" class="h">wrike</text><text x="20.04" y="1.67" class="h">utils</text><text x="26.052" y="1.67" class="h">to</text><text x="29.058" y="1.67" class="h">pubspec.yaml</text><text x="42.084" y="1.67" class="k">(2</text><text x="45.09" y="1.67" class="k">days</text><text x="50.1" y="1.67" class="k">ago)</text><text x="55.11" y="1.67" class="l">&lt;Alexey</text><text x="63.126" y="1.67" class="l">Zolotykh</text></symbol><symbol id="13"><text y="1.67" class="l">&gt;</text></symbol><symbol id="14"><text y="1.67" class="i">/Users/alexey.zolotykh/all2/wrike-guide</text></symbol><symbol id="15"><text y="1.67" class="j">cb91e73</text><text x="8.016" y="1.67" class="h">-</text><text x="10.02" y="1.67" class="h">Fix</text><text x="14.028" y="1.67" class="h">merge</text><text x="20.04" y="1.67" class="h">conflict</text><text x="29.058" y="1.67" class="k">(2</text><text x="32.064" y="1.67" class="k">days</text><text x="37.074" y="1.67" class="k">ago)</text><text x="42.084" y="1.67" class="l">&lt;Alexey</text><text x="50.1" y="1.67" class="l">Zolotykh&gt;</text></symbol><symbol id="16"><text y="1.67" class="i">/Users/alexey.zolotykh/all2/wrike-sharing-dialog</text></symbol><symbol id="17"><text y="1.67" class="j">8113295</text><text x="8.016" y="1.67" class="h">-</text><text x="10.02" y="1.67" class="h">Qfix</text><text x="15.03" y="1.67" class="h">format</text><text x="22.044" y="1.67" class="k">(2</text><text x="25.05" y="1.67" class="k">days</text><text x="30.06" y="1.67" class="k">ago)</text><text x="35.07" y="1.67" class="l">&lt;Alexey</text><text x="43.086" y="1.67" class="l">Zolotykh&gt;</text></symbol><symbol id="18"><text y="1.67" class="j">45d70a9</text><text x="8.016" y="1.67" class="h">-</text><text x="10.02" y="1.67" class="h">Remove</text><text x="17.034" y="1.67" class="h">browser</text><text x="25.05" y="1.67" class="h">add</text><text x="29.058" y="1.67" class="h">utils</text><text x="35.07" y="1.67" class="h">override</text><text x="44.088" y="1.67" class="k">(2</text><text x="47.094" y="1.67" class="k">days</text><text x="52.104" y="1.67" class="k">ago)</text><text x="57.114" y="1.67" class="l">&lt;Alexey</text><text x="65.13" y="1.67" class="l">Zoloty</text></symbol><symbol id="19"><text y="1.67" class="l">kh&gt;</text></symbol><symbol id="20"><text y="1.67" class="i">/Users/alexey.zolotykh/all2/wrike-suggest-components</text></symbol><symbol id="21"><text y="1.67" class="j">5508b84</text><text x="8.016" y="1.67" class="h">-</text><text x="10.02" y="1.67" class="h">Add</text><text x="14.028" y="1.67" class="h">override</text><text x="23.046" y="1.67" class="h">on</text><text x="26.052" y="1.67" class="h">utils</text><text x="32.064" y="1.67" class="k">(2</text><text x="35.07" y="1.67" class="k">days</text><text x="40.08" y="1.67" class="k">ago)</text><text x="45.09" y="1.67" class="l">&lt;Alexey</text><text x="53.106" y="1.67" class="l">Zolotykh&gt;</text></symbol><symbol id="a"><path fill="transparent" d="M0 0h71v16H0z"/></symbol><symbol id="b"><path fill="#6f7683" d="M0 0h1.102v2.171H0z"/></symbol></defs><path class="a" d="M0 0h71v34.736H0z"/><g style="animation-duration:14.590328s;animation-iteration-count:infinite;animation-name:o;animation-timing-function:steps(1,end)"><svg width="1988"><svg><use xlink:href="#a"/><use xlink:href="#b" x="-.004"/></svg><svg x="71"><use xlink:href="#a"/><use xlink:href="#b" x="-.004"/></svg><svg x="142"><use xlink:href="#a"/><use xlink:href="#b" x="-.004"/></svg><svg x="213"><use xlink:href="#a"/><use xlink:href="#b" x="-.004"/></svg><svg x="284"><use xlink:href="#a"/><use xlink:href="#b" x="-.004"/></svg><svg x="355"><use xlink:href="#a"/><use xlink:href="#b" x="-.004"/></svg><svg x="426"><use xlink:href="#a"/><use xlink:href="#b" x="8.996"/><use xlink:href="#1"/></svg><svg x="497"><use xlink:href="#a"/><use xlink:href="#b" x="8.996"/><use xlink:href="#1"/></svg><svg x="568"><use xlink:href="#a"/><use xlink:href="#b" x="9.996"/><text y="1.67" class="f">➜</text><text x="3.006" y="1.67" class="g">all2</text><text x="9.018" y="1.67" class="h">g</text></svg><svg x="639"><use xlink:href="#a"/><use xlink:href="#b" x="10.996"/><text y="1.67" class="f">➜</text><text x="3.006" y="1.67" class="g">all2</text><text x="9.018" y="1.67" class="h">gi</text></svg><svg x="710"><use xlink:href="#a"/><use xlink:href="#b" x="11.996"/><text y="1.67" class="f">➜</text><text x="3.006" y="1.67" class="g">all2</text><text x="9.018" y="1.67" class="h">git</text></svg><svg x="781"><use xlink:href="#a"/><use xlink:href="#b" x="24.996"/><use xlink:href="#2"/></svg><svg x="852"><use xlink:href="#a"/><use xlink:href="#b" x="24.996"/><use xlink:href="#2"/></svg><svg x="923"><use xlink:href="#a"/><use xlink:href="#b" x="-.004" y="2.146"/><use xlink:href="#2"/></svg><svg x="994"><use xlink:href="#a"/><use xlink:href="#b" x="-.004" y="2.146"/><use xlink:href="#2"/></svg><svg x="1065"><use xlink:href="#a"/><use xlink:href="#b" x="-.004" y="2.146"/><use xlink:href="#2"/></svg><svg x="1136"><use xlink:href="#a"/><use xlink:href="#b" x="-.004" y="8.659"/><use xlink:href="#2"/><use xlink:href="#3" y="2.171"/><use xlink:href="#4" y="4.342"/><use xlink:href="#5" y="6.513"/></svg><svg x="1207"><use xlink:href="#a"/><use xlink:href="#b" x="-.004" y="15.172"/><use xlink:href="#2"/><use xlink:href="#3" y="2.171"/><use xlink:href="#4" y="4.342"/><use xlink:href="#5" y="6.513"/><use xlink:href="#6" y="8.684"/><use xlink:href="#7" y="10.855"/><use xlink:href="#8" y="13.026"/></svg><svg x="1278"><use xlink:href="#a"/><use xlink:href="#b" x="-.004" y="26.027"/><use xlink:href="#2"/><use xlink:href="#3" y="2.171"/><use xlink:href="#4" y="4.342"/><use xlink:href="#5" y="6.513"/><use xlink:href="#6" y="8.684"/><use xlink:href="#7" y="10.855"/><use xlink:href="#8" y="13.026"/><use xlink:href="#9" y="15.197"/><use xlink:href="#10" y="17.368"/><use xlink:href="#11" y="19.539"/><use xlink:href="#12" y="21.71"/><use xlink:href="#13" y="23.881"/></svg><svg x="1349"><use xlink:href="#a"/><use xlink:href="#b" x="-.004" y="30.369"/><use xlink:href="#2"/><use xlink:href="#3" y="2.171"/><use xlink:href="#4" y="4.342"/><use xlink:href="#5" y="6.513"/><use xlink:href="#6" y="8.684"/><use xlink:href="#7" y="10.855"/><use xlink:href="#8" y="13.026"/><use xlink:href="#9" y="15.197"/><use xlink:href="#10" y="17.368"/><use xlink:href="#11" y="19.539"/><use xlink:href="#12" y="21.71"/><use xlink:href="#13" y="23.881"/><use xlink:href="#14" y="26.052"/><use xlink:href="#15" y="28.223"/></svg><svg x="1420"><use xlink:href="#a"/><use xlink:href="#b" x="-.004" y="32.54"/><use xlink:href="#5"/><use xlink:href="#6" y="2.171"/><use xlink:href="#7" y="4.342"/><use xlink:href="#8" y="6.513"/><use xlink:href="#9" y="8.684"/><use xlink:href="#10" y="10.855"/><use xlink:href="#11" y="13.026"/><use xlink:href="#12" y="15.197"/><use xlink:href="#13" y="17.368"/><use xlink:href="#14" y="19.539"/><use xlink:href="#15" y="21.71"/><use xlink:href="#16" y="23.881"/><use xlink:href="#17" y="26.052"/><use xlink:href="#18" y="28.223"/><use xlink:href="#19" y="30.394"/></svg><svg x="1491"><use xlink:href="#a"/><use xlink:href="#b" x="-.004" y="32.54"/><use xlink:href="#7"/><use xlink:href="#8" y="2.171"/><use xlink:href="#9" y="4.342"/><use xlink:href="#10" y="6.513"/><use xlink:href="#11" y="8.684"/><use xlink:href="#12" y="10.855"/><use xlink:href="#13" y="13.026"/><use xlink:href="#14" y="15.197"/><use xlink:href="#15" y="17.368"/><use xlink:href="#16" y="19.539"/><use xlink:href="#17" y="21.71"/><use xlink:href="#18" y="23.881"/><use xlink:href="#19" y="26.052"/><use xlink:href="#20" y="28.223"/><use xlink:href="#21" y="30.394"/></svg><svg x="1562"><use xlink:href="#a"/><use xlink:href="#b" x="-.004" y="32.54"/><use xlink:href="#7"/><use xlink:href="#8" y="2.171"/><use xlink:href="#9" y="4.342"/><use xlink:href="#10" y="6.513"/><use xlink:href="#11" y="8.684"/><use xlink:href="#12" y="10.855"/><use xlink:href="#13" y="13.026"/><use xlink:href="#14" y="15.197"/><use xlink:href="#15" y="17.368"/><use xlink:href="#16" y="19.539"/><use xlink:href="#17" y="21.71"/><use xlink:href="#18" y="23.881"/><use xlink:href="#19" y="26.052"/><use xlink:href="#20" y="28.223"/><use xlink:href="#21" y="30.394"/></svg><svg x="1633"><use xlink:href="#a"/><use xlink:href="#b" x="-.004" y="32.54"/><use xlink:href="#7"/><use xlink:href="#8" y="2.171"/><use xlink:href="#9" y="4.342"/><use xlink:href="#10" y="6.513"/><use xlink:href="#11" y="8.684"/><use xlink:href="#12" y="10.855"/><use xlink:href="#13" y="13.026"/><use xlink:href="#14" y="15.197"/><use xlink:href="#15" y="17.368"/><use xlink:href="#16" y="19.539"/><use xlink:href="#17" y="21.71"/><use xlink:href="#18" y="23.881"/><use xlink:href="#19" y="26.052"/><use xlink:href="#20" y="28.223"/><use xlink:href="#21" y="30.394"/></svg><svg x="1704"><use xlink:href="#a"/><use xlink:href="#b" x="-.004" y="32.54"/><use xlink:href="#7"/><use xlink:href="#8" y="2.171"/><use xlink:href="#9" y="4.342"/><use xlink:href="#10" y="6.513"/><use xlink:href="#11" y="8.684"/><use xlink:href="#12" y="10.855"/><use xlink:href="#13" y="13.026"/><use xlink:href="#14" y="15.197"/><use xlink:href="#15" y="17.368"/><use xlink:href="#16" y="19.539"/><use xlink:href="#17" y="21.71"/><use xlink:href="#18" y="23.881"/><use xlink:href="#19" y="26.052"/><use xlink:href="#20" y="28.223"/><use xlink:href="#21" y="30.394"/></svg><svg x="1775"><use xlink:href="#a"/><use xlink:href="#b" x="8.996" y="32.54"/><use xlink:href="#7"/><use xlink:href="#8" y="2.171"/><use xlink:href="#9" y="4.342"/><use xlink:href="#10" y="6.513"/><use xlink:href="#11" y="8.684"/><use xlink:href="#12" y="10.855"/><use xlink:href="#13" y="13.026"/><use xlink:href="#14" y="15.197"/><use xlink:href="#15" y="17.368"/><use xlink:href="#16" y="19.539"/><use xlink:href="#17" y="21.71"/><use xlink:href="#18" y="23.881"/><use xlink:href="#19" y="26.052"/><use xlink:href="#20" y="28.223"/><use xlink:href="#21" y="30.394"/><use xlink:href="#1" y="32.565"/></svg><svg x="1846"><use xlink:href="#a"/><use xlink:href="#b" x="8.996" y="32.54"/><use xlink:href="#7"/><use xlink:href="#8" y="2.171"/><use xlink:href="#9" y="4.342"/><use xlink:href="#10" y="6.513"/><use xlink:href="#11" y="8.684"/><use xlink:href="#12" y="10.855"/><use xlink:href="#13" y="13.026"/><use xlink:href="#14" y="15.197"/><use xlink:href="#15" y="17.368"/><use xlink:href="#16" y="19.539"/><use xlink:href="#17" y="21.71"/><use xlink:href="#18" y="23.881"/><use xlink:href="#19" y="26.052"/><use xlink:href="#20" y="28.223"/><use xlink:href="#21" y="30.394"/><use xlink:href="#1" y="32.565"/></svg><svg x="1917"><use xlink:href="#a"/><use xlink:href="#b" x="-.004" y="32.54"/><use xlink:href="#8"/><use xlink:href="#9" y="2.171"/><use xlink:href="#10" y="4.342"/><use xlink:href="#11" y="6.513"/><use xlink:href="#12" y="8.684"/><use xlink:href="#13" y="10.855"/><use xlink:href="#14" y="13.026"/><use xlink:href="#15" y="15.197"/><use xlink:href="#16" y="17.368"/><use xlink:href="#17" y="19.539"/><use xlink:href="#18" y="21.71"/><use xlink:href="#19" y="23.881"/><use xlink:href="#20" y="26.052"/><use xlink:href="#21" y="28.223"/><use xlink:href="#1" y="30.394"/></svg></svg></g></g></svg></svg>